<?xml version="1.0" standalone="no"?>
<svg xmlns="http://www.w3.org/2000/svg" width="250" height="250"><defs><clipPath id="clip-path-dot-color"><circle cx="4.5" cy="44.5" r="2.5" transform="rotate(0,4.5,44.5)"/><circle cx="4.5" cy="49.5" r="2.5" transform="rotate(0,4.5,49.5)"/><circle cx="4.5" cy="54.5" r="2.5" transform="rotate(0,4.5,54.5)"/><circle cx="4.5" cy="59.5" r="2.5" transform="rotate(0,4.5,59.5)"/><circle cx="4.5" cy="69.5" r="2.5" transform="rotate(0,4.5,69.5)"/><circle cx="4.5" cy="74.5" r="2.5" transform="rotate(0,4.5,74.5)"/><circle cx="4.5" cy="79.5" r="2.5" transform="rotate(0,4.5,79.5)"/><circle cx="4.5" cy="84.5" r="2.5" transform="rotate(0,4.5,84.5)"/><circle cx="4.5" cy="89.5" r="2.5" transform="rotate(0,4.5,89.5)"/><circle cx="4.5" cy="114.5" r="2.5" transform="rotate(0,4.5,114.5)"/><circle cx="4.5" cy="119.5" r="2.5" transform="rotate(0,4.5,119.5)"/><circle cx="4.5" cy="124.5" r="2.5" transform="rotate(0,4.5,124.5)"/><circle cx="4.5" cy="129.5" r="2.5" transform="rotate(0,4.5,129.5)"/><circle cx="4.5" cy="134.5" r="2.5" transform="rotate(0,4.5,134.5)"/><circle cx="4.5" cy="144.5" r="2.5" transform="rotate(0,4.5,144.5)"/><circle cx="4.5" cy="149.5" r="2.5" transform="rotate(0,4.5,149.5)"/><circle cx="4.5" cy="154.5" r="2.5" transform="rotate(0,4.5,154.5)"/><circle cx="4.5" cy="159.5" r="2.5" transform="rotate(0,4.5,159.5)"/><circle cx="4.5" cy="179.5" r="2.5" transform="rotate(0,4.5,179.5)"/><circle cx="4.5" cy="204.5" r="2.5" transform="rotate(0,4.5,204.5)"/><circle cx="9.5" cy="44.5" r="2.5" transform="rotate(0,9.5,44.5)"/><circle cx="9.5" cy="54.5" r="2.5" transform="rotate(0,9.5,54.5)"/><circle cx="9.5" cy="69.5" r="2.5" transform="rotate(0,9.5,69.5)"/><circle cx="9.5" cy="74.5" r="2.5" transform="rotate(0,9.5,74.5)"/><circle cx="9.5" cy="84.5" r="2.5" transform="rotate(0,9.5,84.5)"/><circle cx="9.5" cy="89.5" r="2.5" transform="rotate(0,9.5,89.5)"/><circle cx="9.5" cy="99.5" r="2.5" transform="rotate(0,9.5,99.5)"/><circle cx="9.5" cy="104.5" r="2.5" transform="rotate(0,9.5,104.5)"/><circle cx="9.5" cy="119.5" r="2.5" transform="rotate(0,9.5,119.5)"/><circle cx="9.5" cy="124.5" r="2.5" transform="rotate(0,9.5,124.5)"/><circle cx="9.5" cy="129.5" r="2.5" transform="rotate(0,9.5,129.5)"/><circle cx="9.5" cy="134.5" r="2.5" transform="rotate(0,9.5,134.5)"/><circle cx="9.5" cy="144.5" r="2.5" transform="rotate(0,9.5,144.5)"/><circle cx="9.5" cy="164.5" r="2.5" transform="rotate(0,9.5,164.5)"/><circle cx="9.5" cy="169.5" r="2.5" transform="rotate(0,9.5,169.5)"/><circle cx="9.5" cy="174.5" r="2.5" transform="rotate(0,9.5,174.5)"/><circle cx="9.5" cy="184.5" r="2.5" transform="rotate(0,9.5,184.5)"/><circle cx="9.5" cy="194.5" r="2.5" transform="rotate(0,9.5,194.5)"/><circle cx="9.5" cy="199.5" r="2.5" transform="rotate(0,9.5,199.5)"/><circle cx="9.5" cy="204.5" r="2.5" transform="rotate(0,9.5,204.5)"/><circle cx="14.5" cy="44.5" r="2.5" transform="rotate(0,14.5,44.5)"/><circle cx="14.5" cy="69.5" r="2.5" transform="rotate(0,14.5,69.5)"/><circle cx="14.5" cy="79.5" r="2.5" transform="rotate(0,14.5,79.5)"/><circle cx="14.5" cy="94.5" r="2.5" transform="rotate(0,14.5,94.5)"/><circle cx="14.5" cy="99.5" r="2.5" transform="rotate(0,14.5,99.5)"/><circle cx="14.5" cy="104.5" r="2.5" transform="rotate(0,14.5,104.5)"/><circle cx="14.5" cy="109.5" r="2.5" transform="rotate(0,14.5,109.5)"/><circle cx="14.5" cy="119.5" r="2.5" transform="rotate(0,14.5,119.5)"/><circle cx="14.5" cy="124.5" r="2.5" transform="rotate(0,14.5,124.5)"/><circle cx="14.5" cy="139.5" r="2.5" transform="rotate(0,14.5,139.5)"/><circle cx="14.5" cy="144.5" r="2.5" transform="rotate(0,14.5,144.5)"/><circle cx="14.5" cy="149.5" r="2.5" transform="rotate(0,14.5,149.5)"/><circle cx="14.5" cy="164.5" r="2.5" transform="rotate(0,14.5,164.5)"/><circle cx="14.5" cy="169.5" r="2.5" transform="rotate(0,14.5,169.5)"/><circle cx="14.5" cy="179.5" r="2.5" transform="rotate(0,14.5,179.5)"/><circle cx="14.5" cy="199.5" r="2.5" transform="rotate(0,14.5,199.5)"/><circle cx="14.5" cy="204.5" r="2.5" transform="rotate(0,14.5,204.5)"/><circle cx="19.5" cy="49.5" r="2.5" transform="rotate(0,19.5,49.5)"/><circle cx="19.5" cy="54.5" r="2.5" transform="rotate(0,19.5,54.5)"/><circle cx="19.5" cy="89.5" r="2.5" transform="rotate(0,19.5,89.5)"/><circle cx="19.5" cy="94.5" r="2.5" transform="rotate(0,19.5,94.5)"/><circle cx="19.5" cy="99.5" r="2.5" transform="rotate(0,19.5,99.5)"/><circle cx="19.5" cy="104.5" r="2.5" transform="rotate(0,19.5,104.5)"/><circle cx="19.5" cy="109.5" r="2.5" transform="rotate(0,19.5,109.5)"/><circle cx="19.5" cy="114.5" r="2.5" transform="rotate(0,19.5,114.5)"/><circle cx="19.5" cy="124.5" r="2.5" transform="rotate(0,19.5,124.5)"/><circle cx="19.5" cy="129.5" r="2.5" transform="rotate(0,19.5,129.5)"/><circle cx="19.5" cy="144.5" r="2.5" transform="rotate(0,19.5,144.5)"/><circle cx="19.5" cy="174.5" r="2.5" transform="rotate(0,19.5,174.5)"/><circle cx="19.5" cy="179.5" r="2.5" transform="rotate(0,19.5,179.5)"/><circle cx="19.5" cy="184.5" r="2.5" transform="rotate(0,19.5,184.5)"/><circle cx="19.5" cy="189.5" r="2.5" transform="rotate(0,19.5,189.5)"/><circle cx="19.5" cy="199.5" r="2.5" transform="rotate(0,19.5,199.5)"/><circle cx="24.5" cy="49.5" r="2.5" transform="rotate(0,24.5,49.5)"/><circle cx="24.5" cy="54.5" r="2.5" transform="rotate(0,24.5,54.5)"/><circle cx="24.5" cy="59.5" r="2.5" transform="rotate(0,24.5,59.5)"/><circle cx="24.5" cy="64.5" r="2.5" transform="rotate(0,24.5,64.5)"/><circle cx="24.5" cy="69.5" r="2.5" transform="rotate(0,24.5,69.5)"/><circle cx="24.5" cy="74.5" r="2.5" transform="rotate(0,24.5,74.5)"/><circle cx="24.5" cy="84.5" r="2.5" transform="rotate(0,24.5,84.5)"/><circle cx="24.5" cy="114.5" r="2.5" transform="rotate(0,24.5,114.5)"/><circle cx="24.5" cy="119.5" r="2.5" transform="rotate(0,24.5,119.5)"/><circle cx="24.5" cy="124.5" r="2.5" transform="rotate(0,24.5,124.5)"/><circle cx="24.5" cy="129.5" r="2.5" transform="rotate(0,24.5,129.5)"/><circle cx="24.5" cy="134.5" r="2.5" transform="rotate(0,24.5,134.5)"/><circle cx="24.5" cy="139.5" r="2.5" transform="rotate(0,24.5,139.5)"/><circle cx="24.5" cy="144.5" r="2.5" transform="rotate(0,24.5,144.5)"/><circle cx="24.5" cy="149.5" r="2.5" transform="rotate(0,24.5,149.5)"/><circle cx="24.5" cy="164.5" r="2.5" transform="rotate(0,24.5,164.5)"/><circle cx="24.5" cy="169.5" r="2.5" transform="rotate(0,24.5,169.5)"/><circle cx="24.5" cy="179.5" r="2.5" transform="rotate(0,24.5,179.5)"/><circle cx="24.5" cy="189.5" r="2.5" transform="rotate(0,24.5,189.5)"/><circle cx="29.5" cy="44.5" r="2.5" transform="rotate(0,29.5,44.5)"/><circle cx="29.5" cy="64.5" r="2.5" transform="rotate(0,29.5,64.5)"/><circle cx="29.5" cy="69.5" r="2.5" transform="rotate(0,29.5,69.5)"/><circle cx="29.5" cy="89.5" r="2.5" transform="rotate(0,29.5,89.5)"/><circle cx="29.5" cy="94.5" r="2.5" transform="rotate(0,29.5,94.5)"/><circle cx="29.5" cy="114.5" r="2.5" transform="rotate(0,29.5,114.5)"/><circle cx="29.5" cy="134.5" r="2.5" transform="rotate(0,29.5,134.5)"/><circle cx="29.5" cy="139.5" r="2.5" transform="rotate(0,29.5,139.5)"/><circle cx="29.5" cy="149.5" r="2.5" transform="rotate(0,29.5,149.5)"/><circle cx="29.5" cy="154.5" r="2.5" transform="rotate(0,29.5,154.5)"/><circle cx="29.5" cy="159.5" r="2.5" transform="rotate(0,29.5,159.5)"/><circle cx="29.5" cy="169.5" r="2.5" transform="rotate(0,29.5,169.5)"/><circle cx="29.5" cy="174.5" r="2.5" transform="rotate(0,29.5,174.5)"/><circle cx="29.5" cy="179.5" r="2.5" transform="rotate(0,29.5,179.5)"/><circle cx="29.5" cy="184.5" r="2.5" transform="rotate(0,29.5,184.5)"/><circle cx="29.5" cy="189.5" r="2.5" transform="rotate(0,29.5,189.5)"/><circle cx="29.5" cy="194.5" r="2.5" transform="rotate(0,29.5,194.5)"/><circle cx="34.5" cy="44.5" r="2.5" transform="rotate(0,34.5,44.5)"/><circle cx="34.5" cy="54.5" r="2.5" transform="rotate(0,34.5,54.5)"/><circle cx="34.5" cy="64.5" r="2.5" transform="rotate(0,34.5,64.5)"/><circle cx="34.5" cy="74.5" r="2.5" transform="rotate(0,34.5,74.5)"/><circle cx="34.5" cy="84.5" r="2.5" transform="rotate(0,34.5,84.5)"/><circle cx="34.5" cy="94.5" r="2.5" transform="rotate(0,34.5,94.5)"/><circle cx="34.5" cy="104.5" r="2.5" transform="rotate(0,34.5,104.5)"/><circle cx="34.5" cy="114.5" r="2.5" transform="rotate(0,34.5,114.5)"/><circle cx="34.5" cy="124.5" r="2.5" transform="rotate(0,34.5,124.5)"/><circle cx="34.5" cy="134.5" r="2.5" transform="rotate(0,34.5,134.5)"/><circle cx="34.5" cy="144.5" r="2.5" transform="rotate(0,34.5,144.5)"/><circle cx="34.5" cy="154.5" r="2.5" transform="rotate(0,34.5,154.5)"/><circle cx="34.5" cy="164.5" r="2.5" transform="rotate(0,34.5,164.5)"/><circle cx="34.5" cy="174.5" r="2.5" transform="rotate(0,34.5,174.5)"/><circle cx="34.5" cy="184.5" r="2.5" transform="rotate(0,34.5,184.5)"/><circle cx="34.5" cy="194.5" r="2.5" transform="rotate(0,34.5,194.5)"/><circle cx="34.5" cy="204.5" r="2.5" transform="rotate(0,34.5,204.5)"/><circle cx="39.5" cy="44.5" r="2.5" transform="rotate(0,39.5,44.5)"/><circle cx="39.5" cy="64.5" r="2.5" transform="rotate(0,39.5,64.5)"/><circle cx="39.5" cy="69.5" r="2.5" transform="rotate(0,39.5,69.5)"/><circle cx="39.5" cy="74.5" r="2.5" transform="rotate(0,39.5,74.5)"/><circle cx="39.5" cy="79.5" r="2.5" transform="rotate(0,39.5,79.5)"/><circle cx="39.5" cy="84.5" r="2.5" transform="rotate(0,39.5,84.5)"/><circle cx="39.5" cy="99.5" r="2.5" transform="rotate(0,39.5,99.5)"/><circle cx="39.5" cy="104.5" r="2.5" transform="rotate(0,39.5,104.5)"/><circle cx="39.5" cy="109.5" r="2.5" transform="rotate(0,39.5,109.5)"/><circle cx="39.5" cy="114.5" r="2.5" transform="rotate(0,39.5,114.5)"/><circle cx="39.5" cy="134.5" r="2.5" transform="rotate(0,39.5,134.5)"/><circle cx="39.5" cy="144.5" r="2.5" transform="rotate(0,39.5,144.5)"/><circle cx="39.5" cy="154.5" r="2.5" transform="rotate(0,39.5,154.5)"/><circle cx="39.5" cy="159.5" r="2.5" transform="rotate(0,39.5,159.5)"/><circle cx="39.5" cy="169.5" r="2.5" transform="rotate(0,39.5,169.5)"/><circle cx="39.5" cy="184.5" r="2.5" transform="rotate(0,39.5,184.5)"/><circle cx="39.5" cy="194.5" r="2.5" transform="rotate(0,39.5,194.5)"/><circle cx="44.5" cy="14.5" r="2.5" transform="rotate(0,44.5,14.5)"/><circle cx="44.5" cy="19.5" r="2.5" transform="rotate(0,44.5,19.5)"/><circle cx="44.5" cy="24.5" r="2.5" transform="rotate(0,44.5,24.5)"/><circle cx="44.5" cy="34.5" r="2.5" transform="rotate(0,44.5,34.5)"/><circle cx="44.5" cy="44.5" r="2.5" transform="rotate(0,44.5,44.5)"/><circle cx="44.5" cy="59.5" r="2.5" transform="rotate(0,44.5,59.5)"/><circle cx="44.5" cy="64.5" r="2.5" transform="rotate(0,44.5,64.5)"/><circle cx="44.5" cy="74.5" r="2.5" transform="rotate(0,44.5,74.5)"/><circle cx="44.5" cy="79.5" r="2.5" transform="rotate(0,44.5,79.5)"/><circle cx="44.5" cy="89.5" r="2.5" transform="rotate(0,44.5,89.5)"/><circle cx="44.5" cy="94.5" r="2.5" transform="rotate(0,44.5,94.5)"/><circle cx="44.5" cy="99.5" r="2.5" transform="rotate(0,44.5,99.5)"/><circle cx="44.5" cy="104.5" r="2.5" transform="rotate(0,44.5,104.5)"/><circle cx="44.5" cy="109.5" r="2.5" transform="rotate(0,44.5,109.5)"/><circle cx="44.5" cy="114.5" r="2.5" transform="rotate(0,44.5,114.5)"/><circle cx="44.5" cy="119.5" r="2.5" transform="rotate(0,44.5,119.5)"/><circle cx="44.5" cy="124.5" r="2.5" transform="rotate(0,44.5,124.5)"/><circle cx="44.5" cy="129.5" r="2.5" transform="rotate(0,44.5,129.5)"/><circle cx="44.5" cy="134.5" r="2.5" transform="rotate(0,44.5,134.5)"/><circle cx="44.5" cy="139.5" r="2.5" transform="rotate(0,44.5,139.5)"/><circle cx="44.5" cy="164.5" r="2.5" transform="rotate(0,44.5,164.5)"/><circle cx="44.5" cy="174.5" r="2.5" transform="rotate(0,44.5,174.5)"/><circle cx="44.5" cy="179.5" r="2.5" transform="rotate(0,44.5,179.5)"/><circle cx="44.5" cy="194.5" r="2.5" transform="rotate(0,44.5,194.5)"/><circle cx="44.5" cy="199.5" r="2.5" transform="rotate(0,44.5,199.5)"/><circle cx="44.5" cy="204.5" r="2.5" transform="rotate(0,44.5,204.5)"/><circle cx="44.5" cy="209.5" r="2.5" transform="rotate(0,44.5,209.5)"/><circle cx="44.5" cy="214.5" r="2.5" transform="rotate(0,44.5,214.5)"/><circle cx="44.5" cy="219.5" r="2.5" transform="rotate(0,44.5,219.5)"/><circle cx="44.5" cy="234.5" r="2.5" transform="rotate(0,44.5,234.5)"/><circle cx="44.5" cy="239.5" r="2.5" transform="rotate(0,44.5,239.5)"/><circle cx="44.5" cy="244.5" r="2.5" transform="rotate(0,44.5,244.5)"/><circle cx="49.5" cy="4.5" r="2.5" transform="rotate(0,49.5,4.5)"/><circle cx="49.5" cy="9.5" r="2.5" transform="rotate(0,49.5,9.5)"/><circle cx="49.5" cy="14.5" r="2.5" transform="rotate(0,49.5,14.5)"/><circle cx="49.5" cy="19.5" r="2.5" transform="rotate(0,49.5,19.5)"/><circle cx="49.5" cy="29.5" r="2.5" transform="rotate(0,49.5,29.5)"/><circle cx="49.5" cy="39.5" r="2.5" transform="rotate(0,49.5,39.5)"/><circle cx="49.5" cy="49.5" r="2.5" transform="rotate(0,49.5,49.5)"/><circle cx="49.5" cy="54.5" r="2.5" transform="rotate(0,49.5,54.5)"/><circle cx="49.5" cy="59.5" r="2.5" transform="rotate(0,49.5,59.5)"/><circle cx="49.5" cy="64.5" r="2.5" transform="rotate(0,49.5,64.5)"/><circle cx="49.5" cy="69.5" r="2.5" transform="rotate(0,49.5,69.5)"/><circle cx="49.5" cy="74.5" r="2.5" transform="rotate(0,49.5,74.5)"/><circle cx="49.5" cy="79.5" r="2.5" transform="rotate(0,49.5,79.5)"/><circle cx="49.5" cy="89.5" r="2.5" transform="rotate(0,49.5,89.5)"/><circle cx="49.5" cy="99.5" r="2.5" transform="rotate(0,49.5,99.5)"/><circle cx="49.5" cy="104.5" r="2.5" transform="rotate(0,49.5,104.5)"/><circle cx="49.5" cy="119.5" r="2.5" transform="rotate(0,49.5,119.5)"/><circle cx="49.5" cy="129.5" r="2.5" transform="rotate(0,49.5,129.5)"/><circle cx="49.5" cy="134.5" r="2.5" transform="rotate(0,49.5,134.5)"/><circle cx="49.5" cy="144.5" r="2.5" transform="rotate(0,49.5,144.5)"/><circle cx="49.5" cy="149.5" r="2.5" transform="rotate(0,49.5,149.5)"/><circle cx="49.5" cy="154.5" r="2.5" transform="rotate(0,49.5,154.5)"/><circle cx="49.5" cy="164.5" r="2.5" transform="rotate(0,49.5,164.5)"/><circle cx="49.5" cy="189.5" r="2.5" transform="rotate(0,49.5,189.5)"/><circle cx="49.5" cy="209.5" r="2.5" transform="rotate(0,49.5,209.5)"/><circle cx="49.5" cy="214.5" r="2.5" transform="rotate(0,49.5,214.5)"/><circle cx="49.5" cy="224.5" r="2.5" transform="rotate(0,49.5,224.5)"/><circle cx="54.5" cy="9.5" r="2.5" transform="rotate(0,54.5,9.5)"/><circle cx="54.5" cy="14.5" r="2.5" transform="rotate(0,54.5,14.5)"/><circle cx="54.5" cy="34.5" r="2.5" transform="rotate(0,54.5,34.5)"/><circle cx="54.5" cy="39.5" r="2.5" transform="rotate(0,54.5,39.5)"/><circle cx="54.5" cy="44.5" r="2.5" transform="rotate(0,54.5,44.5)"/><circle cx="54.5" cy="54.5" r="2.5" transform="rotate(0,54.5,54.5)"/><circle cx="54.5" cy="64.5" r="2.5" transform="rotate(0,54.5,64.5)"/><circle cx="54.5" cy="69.5" r="2.5" transform="rotate(0,54.5,69.5)"/><circle cx="54.5" cy="84.5" r="2.5" transform="rotate(0,54.5,84.5)"/><circle cx="54.5" cy="114.5" r="2.5" transform="rotate(0,54.5,114.5)"/><circle cx="54.5" cy="124.5" r="2.5" transform="rotate(0,54.5,124.5)"/><circle cx="54.5" cy="139.5" r="2.5" transform="rotate(0,54.5,139.5)"/><circle cx="54.5" cy="154.5" r="2.5" transform="rotate(0,54.5,154.5)"/><circle cx="54.5" cy="159.5" r="2.5" transform="rotate(0,54.5,159.5)"/><circle cx="54.5" cy="164.5" r="2.5" transform="rotate(0,54.5,164.5)"/><circle cx="54.5" cy="179.5" r="2.5" transform="rotate(0,54.5,179.5)"/><circle cx="54.5" cy="194.5" r="2.5" transform="rotate(0,54.5,194.5)"/><circle cx="54.5" cy="209.5" r="2.5" transform="rotate(0,54.5,209.5)"/><circle cx="54.5" cy="214.5" r="2.5" transform="rotate(0,54.5,214.5)"/><circle cx="54.5" cy="219.5" r="2.5" transform="rotate(0,54.5,219.5)"/><circle cx="54.5" cy="229.5" r="2.5" transform="rotate(0,54.5,229.5)"/><circle cx="54.5" cy="234.5" r="2.5" transform="rotate(0,54.5,234.5)"/><circle cx="54.5" cy="239.5" r="2.5" transform="rotate(0,54.5,239.5)"/><circle cx="54.5" cy="244.5" r="2.5" transform="rotate(0,54.5,244.5)"/><circle cx="59.5" cy="14.5" r="2.5" transform="rotate(0,59.5,14.5)"/><circle cx="59.5" cy="19.5" r="2.5" transform="rotate(0,59.5,19.5)"/><circle cx="59.5" cy="24.5" r="2.5" transform="rotate(0,59.5,24.5)"/><circle cx="59.5" cy="29.5" r="2.5" transform="rotate(0,59.5,29.5)"/><circle cx="59.5" cy="39.5" r="2.5" transform="rotate(0,59.5,39.5)"/><circle cx="59.5" cy="54.5" r="2.5" transform="rotate(0,59.5,54.5)"/><circle cx="59.5" cy="59.5" r="2.5" transform="rotate(0,59.5,59.5)"/><circle cx="59.5" cy="79.5" r="2.5" transform="rotate(0,59.5,79.5)"/><circle cx="59.5" cy="89.5" r="2.5" transform="rotate(0,59.5,89.5)"/><circle cx="59.5" cy="94.5" r="2.5" transform="rotate(0,59.5,94.5)"/><circle cx="59.5" cy="99.5" r="2.5" transform="rotate(0,59.5,99.5)"/><circle cx="59.5" cy="119.5" r="2.5" transform="rotate(0,59.5,119.5)"/><circle cx="59.5" cy="124.5" r="2.5" transform="rotate(0,59.5,124.5)"/><circle cx="59.5" cy="139.5" r="2.5" transform="rotate(0,59.5,139.5)"/><circle cx="59.5" cy="149.5" r="2.5" transform="rotate(0,59.5,149.5)"/><circle cx="59.5" cy="164.5" r="2.5" transform="rotate(0,59.5,164.5)"/><circle cx="59.5" cy="179.5" r="2.5" transform="rotate(0,59.5,179.5)"/><circle cx="59.5" cy="184.5" r="2.5" transform="rotate(0,59.5,184.5)"/><circle cx="59.5" cy="189.5" r="2.5" transform="rotate(0,59.5,189.5)"/><circle cx="59.5" cy="199.5" r="2.5" transform="rotate(0,59.5,199.5)"/><circle cx="59.5" cy="214.5" r="2.5" transform="rotate(0,59.5,214.5)"/><circle cx="59.5" cy="224.5" r="2.5" transform="rotate(0,59.5,224.5)"/><circle cx="59.5" cy="239.5" r="2.5" transform="rotate(0,59.5,239.5)"/><circle cx="64.5" cy="14.5" r="2.5" transform="rotate(0,64.5,14.5)"/><circle cx="64.5" cy="19.5" r="2.5" transform="rotate(0,64.5,19.5)"/><circle cx="64.5" cy="34.5" r="2.5" transform="rotate(0,64.5,34.5)"/><circle cx="64.5" cy="44.5" r="2.5" transform="rotate(0,64.5,44.5)"/><circle cx="64.5" cy="74.5" r="2.5" transform="rotate(0,64.5,74.5)"/><circle cx="64.5" cy="84.5" r="2.5" transform="rotate(0,64.5,84.5)"/><circle cx="64.5" cy="94.5" r="2.5" transform="rotate(0,64.5,94.5)"/><circle cx="64.5" cy="99.5" r="2.5" transform="rotate(0,64.5,99.5)"/><circle cx="64.5" cy="104.5" r="2.5" transform="rotate(0,64.5,104.5)"/><circle cx="64.5" cy="109.5" r="2.5" transform="rotate(0,64.5,109.5)"/><circle cx="64.5" cy="119.5" r="2.5" transform="rotate(0,64.5,119.5)"/><circle cx="64.5" cy="129.5" r="2.5" transform="rotate(0,64.5,129.5)"/><circle cx="64.5" cy="144.5" r="2.5" transform="rotate(0,64.5,144.5)"/><circle cx="64.5" cy="154.5" r="2.5" transform="rotate(0,64.5,154.5)"/><circle cx="64.5" cy="169.5" r="2.5" transform="rotate(0,64.5,169.5)"/><circle cx="64.5" cy="174.5" r="2.5" transform="rotate(0,64.5,174.5)"/><circle cx="64.5" cy="179.5" r="2.5" transform="rotate(0,64.5,179.5)"/><circle cx="64.5" cy="184.5" r="2.5" transform="rotate(0,64.5,184.5)"/><circle cx="64.5" cy="199.5" r="2.5" transform="rotate(0,64.5,199.5)"/><circle cx="64.5" cy="204.5" r="2.5" transform="rotate(0,64.5,204.5)"/><circle cx="64.5" cy="219.5" r="2.5" transform="rotate(0,64.5,219.5)"/><circle cx="64.5" cy="229.5" r="2.5" transform="rotate(0,64.5,229.5)"/><circle cx="64.5" cy="239.5" r="2.5" transform="rotate(0,64.5,239.5)"/><circle cx="64.5" cy="244.5" r="2.5" transform="rotate(0,64.5,244.5)"/><circle cx="69.5" cy="14.5" r="2.5" transform="rotate(0,69.5,14.5)"/><circle cx="69.5" cy="19.5" r="2.5" transform="rotate(0,69.5,19.5)"/><circle cx="69.5" cy="29.5" r="2.5" transform="rotate(0,69.5,29.5)"/><circle cx="69.5" cy="39.5" r="2.5" transform="rotate(0,69.5,39.5)"/><circle cx="69.5" cy="44.5" r="2.5" transform="rotate(0,69.5,44.5)"/><circle cx="69.5" cy="49.5" r="2.5" transform="rotate(0,69.5,49.5)"/><circle cx="69.5" cy="74.5" r="2.5" transform="rotate(0,69.5,74.5)"/><circle cx="69.5" cy="84.5" r="2.5" transform="rotate(0,69.5,84.5)"/><circle cx="69.5" cy="89.5" r="2.5" transform="rotate(0,69.5,89.5)"/><circle cx="69.5" cy="94.5" r="2.5" transform="rotate(0,69.5,94.5)"/><circle cx="69.5" cy="99.5" r="2.5" transform="rotate(0,69.5,99.5)"/><circle cx="69.5" cy="104.5" r="2.5" transform="rotate(0,69.5,104.5)"/><circle cx="69.5" cy="114.5" r="2.5" transform="rotate(0,69.5,114.5)"/><circle cx="69.5" cy="119.5" r="2.5" transform="rotate(0,69.5,119.5)"/><circle cx="69.5" cy="129.5" r="2.5" transform="rotate(0,69.5,129.5)"/><circle cx="69.5" cy="149.5" r="2.5" transform="rotate(0,69.5,149.5)"/><circle cx="69.5" cy="154.5" r="2.5" transform="rotate(0,69.5,154.5)"/><circle cx="69.5" cy="159.5" r="2.5" transform="rotate(0,69.5,159.5)"/><circle cx="69.5" cy="164.5" r="2.5" transform="rotate(0,69.5,164.5)"/><circle cx="69.5" cy="179.5" r="2.5" transform="rotate(0,69.5,179.5)"/><circle cx="69.5" cy="184.5" r="2.5" transform="rotate(0,69.5,184.5)"/><circle cx="69.5" cy="199.5" r="2.5" transform="rotate(0,69.5,199.5)"/><circle cx="69.5" cy="214.5" r="2.5" transform="rotate(0,69.5,214.5)"/><circle cx="69.5" cy="219.5" r="2.5" transform="rotate(0,69.5,219.5)"/><circle cx="69.5" cy="224.5" r="2.5" transform="rotate(0,69.5,224.5)"/><circle cx="69.5" cy="229.5" r="2.5" transform="rotate(0,69.5,229.5)"/><circle cx="69.5" cy="234.5" r="2.5" transform="rotate(0,69.5,234.5)"/><circle cx="69.5" cy="239.5" r="2.5" transform="rotate(0,69.5,239.5)"/><circle cx="74.5" cy="4.5" r="2.5" transform="rotate(0,74.5,4.5)"/><circle cx="74.5" cy="14.5" r="2.5" transform="rotate(0,74.5,14.5)"/><circle cx="74.5" cy="24.5" r="2.5" transform="rotate(0,74.5,24.5)"/><circle cx="74.5" cy="34.5" r="2.5" transform="rotate(0,74.5,34.5)"/><circle cx="74.5" cy="39.5" r="2.5" transform="rotate(0,74.5,39.5)"/><circle cx="74.5" cy="44.5" r="2.5" transform="rotate(0,74.5,44.5)"/><circle cx="74.5" cy="49.5" r="2.5" transform="rotate(0,74.5,49.5)"/><circle cx="74.5" cy="79.5" r="2.5" transform="rotate(0,74.5,79.5)"/><circle cx="74.5" cy="84.5" r="2.5" transform="rotate(0,74.5,84.5)"/><circle cx="74.5" cy="89.5" r="2.5" transform="rotate(0,74.5,89.5)"/><circle cx="74.5" cy="99.5" r="2.5" transform="rotate(0,74.5,99.5)"/><circle cx="74.5" cy="104.5" r="2.5" transform="rotate(0,74.5,104.5)"/><circle cx="74.5" cy="109.5" r="2.5" transform="rotate(0,74.5,109.5)"/><circle cx="74.5" cy="114.5" r="2.5" transform="rotate(0,74.5,114.5)"/><circle cx="74.5" cy="124.5" r="2.5" transform="rotate(0,74.5,124.5)"/><circle cx="74.5" cy="139.5" r="2.5" transform="rotate(0,74.5,139.5)"/><circle cx="74.5" cy="144.5" r="2.5" transform="rotate(0,74.5,144.5)"/><circle cx="74.5" cy="159.5" r="2.5" transform="rotate(0,74.5,159.5)"/><circle cx="74.5" cy="164.5" r="2.5" transform="rotate(0,74.5,164.5)"/><circle cx="74.5" cy="174.5" r="2.5" transform="rotate(0,74.5,174.5)"/><circle cx="74.5" cy="179.5" r="2.5" transform="rotate(0,74.5,179.5)"/><circle cx="74.5" cy="189.5" r="2.5" transform="rotate(0,74.5,189.5)"/><circle cx="74.5" cy="194.5" r="2.5" transform="rotate(0,74.5,194.5)"/><circle cx="74.5" cy="199.5" r="2.5" transform="rotate(0,74.5,199.5)"/><circle cx="74.5" cy="204.5" r="2.5" transform="rotate(0,74.5,204.5)"/><circle cx="74.5" cy="209.5" r="2.5" transform="rotate(0,74.5,209.5)"/><circle cx="74.5" cy="219.5" r="2.5" transform="rotate(0,74.5,219.5)"/><circle cx="74.5" cy="224.5" r="2.5" transform="rotate(0,74.5,224.5)"/><circle cx="74.5" cy="234.5" r="2.5" transform="rotate(0,74.5,234.5)"/><circle cx="74.5" cy="239.5" r="2.5" transform="rotate(0,74.5,239.5)"/><circle cx="74.5" cy="244.5" r="2.5" transform="rotate(0,74.5,244.5)"/><circle cx="79.5" cy="14.5" r="2.5" transform="rotate(0,79.5,14.5)"/><circle cx="79.5" cy="44.5" r="2.5" transform="rotate(0,79.5,44.5)"/><circle cx="79.5" cy="59.5" r="2.5" transform="rotate(0,79.5,59.5)"/><circle cx="79.5" cy="69.5" r="2.5" transform="rotate(0,79.5,69.5)"/><circle cx="79.5" cy="74.5" r="2.5" transform="rotate(0,79.5,74.5)"/><circle cx="79.5" cy="89.5" r="2.5" transform="rotate(0,79.5,89.5)"/><circle cx="79.5" cy="94.5" r="2.5" transform="rotate(0,79.5,94.5)"/><circle cx="79.5" cy="109.5" r="2.5" transform="rotate(0,79.5,109.5)"/><circle cx="79.5" cy="114.5" r="2.5" transform="rotate(0,79.5,114.5)"/><circle cx="79.5" cy="124.5" r="2.5" transform="rotate(0,79.5,124.5)"/><circle cx="79.5" cy="134.5" r="2.5" transform="rotate(0,79.5,134.5)"/><circle cx="79.5" cy="139.5" r="2.5" transform="rotate(0,79.5,139.5)"/><circle cx="79.5" cy="144.5" r="2.5" transform="rotate(0,79.5,144.5)"/><circle cx="79.5" cy="149.5" r="2.5" transform="rotate(0,79.5,149.5)"/><circle cx="79.5" cy="154.5" r="2.5" transform="rotate(0,79.5,154.5)"/><circle cx="79.5" cy="159.5" r="2.5" transform="rotate(0,79.5,159.5)"/><circle cx="79.5" cy="169.5" r="2.5" transform="rotate(0,79.5,169.5)"/><circle cx="79.5" cy="179.5" r="2.5" transform="rotate(0,79.5,179.5)"/><circle cx="79.5" cy="184.5" r="2.5" transform="rotate(0,79.5,184.5)"/><circle cx="79.5" cy="199.5" r="2.5" transform="rotate(0,79.5,199.5)"/><circle cx="79.5" cy="204.5" r="2.5" transform="rotate(0,79.5,204.5)"/><circle cx="79.5" cy="209.5" r="2.5" transform="rotate(0,79.5,209.5)"/><circle cx="79.5" cy="224.5" r="2.5" transform="rotate(0,79.5,224.5)"/><circle cx="84.5" cy="9.5" r="2.5" transform="rotate(0,84.5,9.5)"/><circle cx="84.5" cy="24.5" r="2.5" transform="rotate(0,84.5,24.5)"/><circle cx="84.5" cy="34.5" r="2.5" transform="rotate(0,84.5,34.5)"/><circle cx="84.5" cy="39.5" r="2.5" transform="rotate(0,84.5,39.5)"/><circle cx="84.5" cy="44.5" r="2.5" transform="rotate(0,84.5,44.5)"/><circle cx="84.5" cy="54.5" r="2.5" transform="rotate(0,84.5,54.5)"/><circle cx="84.5" cy="59.5" r="2.5" transform="rotate(0,84.5,59.5)"/><circle cx="84.5" cy="64.5" r="2.5" transform="rotate(0,84.5,64.5)"/><circle cx="84.5" cy="79.5" r="2.5" transform="rotate(0,84.5,79.5)"/><circle cx="84.5" cy="84.5" r="2.5" transform="rotate(0,84.5,84.5)"/><circle cx="84.5" cy="89.5" r="2.5" transform="rotate(0,84.5,89.5)"/><circle cx="84.5" cy="94.5" r="2.5" transform="rotate(0,84.5,94.5)"/><circle cx="84.5" cy="99.5" r="2.5" transform="rotate(0,84.5,99.5)"/><circle cx="84.5" cy="114.5" r="2.5" transform="rotate(0,84.5,114.5)"/><circle cx="84.5" cy="129.5" r="2.5" transform="rotate(0,84.5,129.5)"/><circle cx="84.5" cy="144.5" r="2.5" transform="rotate(0,84.5,144.5)"/><circle cx="84.5" cy="159.5" r="2.5" transform="rotate(0,84.5,159.5)"/><circle cx="84.5" cy="164.5" r="2.5" transform="rotate(0,84.5,164.5)"/><circle cx="84.5" cy="179.5" r="2.5" transform="rotate(0,84.5,179.5)"/><circle cx="84.5" cy="184.5" r="2.5" transform="rotate(0,84.5,184.5)"/><circle cx="84.5" cy="189.5" r="2.5" transform="rotate(0,84.5,189.5)"/><circle cx="84.5" cy="199.5" r="2.5" transform="rotate(0,84.5,199.5)"/><circle cx="84.5" cy="219.5" r="2.5" transform="rotate(0,84.5,219.5)"/><circle cx="84.5" cy="229.5" r="2.5" transform="rotate(0,84.5,229.5)"/><circle cx="84.5" cy="234.5" r="2.5" transform="rotate(0,84.5,234.5)"/><circle cx="84.5" cy="244.5" r="2.5" transform="rotate(0,84.5,244.5)"/><circle cx="89.5" cy="4.5" r="2.5" transform="rotate(0,89.5,4.5)"/><circle cx="89.5" cy="14.5" r="2.5" transform="rotate(0,89.5,14.5)"/><circle cx="89.5" cy="19.5" r="2.5" transform="rotate(0,89.5,19.5)"/><circle cx="89.5" cy="44.5" r="2.5" transform="rotate(0,89.5,44.5)"/><circle cx="89.5" cy="59.5" r="2.5" transform="rotate(0,89.5,59.5)"/><circle cx="89.5" cy="69.5" r="2.5" transform="rotate(0,89.5,69.5)"/><circle cx="89.5" cy="74.5" r="2.5" transform="rotate(0,89.5,74.5)"/><circle cx="89.5" cy="84.5" r="2.5" transform="rotate(0,89.5,84.5)"/><circle cx="89.5" cy="99.5" r="2.5" transform="rotate(0,89.5,99.5)"/><circle cx="89.5" cy="114.5" r="2.5" transform="rotate(0,89.5,114.5)"/><circle cx="89.5" cy="124.5" r="2.5" transform="rotate(0,89.5,124.5)"/><circle cx="89.5" cy="129.5" r="2.5" transform="rotate(0,89.5,129.5)"/><circle cx="89.5" cy="139.5" r="2.5" transform="rotate(0,89.5,139.5)"/><circle cx="89.5" cy="144.5" r="2.5" transform="rotate(0,89.5,144.5)"/><circle cx="89.5" cy="149.5" r="2.5" transform="rotate(0,89.5,149.5)"/><circle cx="89.5" cy="164.5" r="2.5" transform="rotate(0,89.5,164.5)"/><circle cx="89.5" cy="169.5" r="2.5" transform="rotate(0,89.5,169.5)"/><circle cx="89.5" cy="184.5" r="2.5" transform="rotate(0,89.5,184.5)"/><circle cx="89.5" cy="204.5" r="2.5" transform="rotate(0,89.5,204.5)"/><circle cx="89.5" cy="209.5" r="2.5" transform="rotate(0,89.5,209.5)"/><circle cx="89.5" cy="219.5" r="2.5" transform="rotate(0,89.5,219.5)"/><circle cx="89.5" cy="224.5" r="2.5" transform="rotate(0,89.5,224.5)"/><circle cx="89.5" cy="229.5" r="2.5" transform="rotate(0,89.5,229.5)"/><circle cx="89.5" cy="234.5" r="2.5" transform="rotate(0,89.5,234.5)"/><circle cx="94.5" cy="4.5" r="2.5" transform="rotate(0,94.5,4.5)"/><circle cx="94.5" cy="24.5" r="2.5" transform="rotate(0,94.5,24.5)"/><circle cx="94.5" cy="34.5" r="2.5" transform="rotate(0,94.5,34.5)"/><circle cx="94.5" cy="44.5" r="2.5" transform="rotate(0,94.5,44.5)"/><circle cx="94.5" cy="69.5" r="2.5" transform="rotate(0,94.5,69.5)"/><circle cx="94.5" cy="74.5" r="2.5" transform="rotate(0,94.5,74.5)"/><circle cx="94.5" cy="109.5" r="2.5" transform="rotate(0,94.5,109.5)"/><circle cx="94.5" cy="114.5" r="2.5" transform="rotate(0,94.5,114.5)"/><circle cx="94.5" cy="129.5" r="2.5" transform="rotate(0,94.5,129.5)"/><circle cx="94.5" cy="134.5" r="2.5" transform="rotate(0,94.5,134.5)"/><circle cx="94.5" cy="139.5" r="2.5" transform="rotate(0,94.5,139.5)"/><circle cx="94.5" cy="154.5" r="2.5" transform="rotate(0,94.5,154.5)"/><circle cx="94.5" cy="159.5" r="2.5" transform="rotate(0,94.5,159.5)"/><circle cx="94.5" cy="189.5" r="2.5" transform="rotate(0,94.5,189.5)"/><circle cx="94.5" cy="199.5" r="2.5" transform="rotate(0,94.5,199.5)"/><circle cx="94.5" cy="204.5" r="2.5" transform="rotate(0,94.5,204.5)"/><circle cx="94.5" cy="214.5" r="2.5" transform="rotate(0,94.5,214.5)"/><circle cx="94.5" cy="224.5" r="2.5" transform="rotate(0,94.5,224.5)"/><circle cx="94.5" cy="229.5" r="2.5" transform="rotate(0,94.5,229.5)"/><circle cx="94.5" cy="239.5" r="2.5" transform="rotate(0,94.5,239.5)"/><circle cx="94.5" cy="244.5" r="2.5" transform="rotate(0,94.5,244.5)"/><circle cx="99.5" cy="4.5" r="2.5" transform="rotate(0,99.5,4.5)"/><circle cx="99.5" cy="9.5" r="2.5" transform="rotate(0,99.5,9.5)"/><circle cx="99.5" cy="19.5" r="2.5" transform="rotate(0,99.5,19.5)"/><circle cx="99.5" cy="24.5" r="2.5" transform="rotate(0,99.5,24.5)"/><circle cx="99.5" cy="39.5" r="2.5" transform="rotate(0,99.5,39.5)"/><circle cx="99.5" cy="49.5" r="2.5" transform="rotate(0,99.5,49.5)"/><circle cx="99.5" cy="54.5" r="2.5" transform="rotate(0,99.5,54.5)"/><circle cx="99.5" cy="69.5" r="2.5" transform="rotate(0,99.5,69.5)"/><circle cx="99.5" cy="84.5" r="2.5" transform="rotate(0,99.5,84.5)"/><circle cx="99.5" cy="89.5" r="2.5" transform="rotate(0,99.5,89.5)"/><circle cx="99.5" cy="94.5" r="2.5" transform="rotate(0,99.5,94.5)"/><circle cx="99.5" cy="119.5" r="2.5" transform="rotate(0,99.5,119.5)"/><circle cx="99.5" cy="124.5" r="2.5" transform="rotate(0,99.5,124.5)"/><circle cx="99.5" cy="139.5" r="2.5" transform="rotate(0,99.5,139.5)"/><circle cx="99.5" cy="144.5" r="2.5" transform="rotate(0,99.5,144.5)"/><circle cx="99.5" cy="159.5" r="2.5" transform="rotate(0,99.5,159.5)"/><circle cx="99.5" cy="164.5" r="2.5" transform="rotate(0,99.5,164.5)"/><circle cx="99.5" cy="179.5" r="2.5" transform="rotate(0,99.5,179.5)"/><circle cx="99.5" cy="189.5" r="2.5" transform="rotate(0,99.5,189.5)"/><circle cx="99.5" cy="194.5" r="2.5" transform="rotate(0,99.5,194.5)"/><circle cx="99.5" cy="204.5" r="2.5" transform="rotate(0,99.5,204.5)"/><circle cx="99.5" cy="214.5" r="2.5" transform="rotate(0,99.5,214.5)"/><circle cx="99.5" cy="219.5" r="2.5" transform="rotate(0,99.5,219.5)"/><circle cx="99.5" cy="224.5" r="2.5" transform="rotate(0,99.5,224.5)"/><circle cx="99.5" cy="244.5" r="2.5" transform="rotate(0,99.5,244.5)"/><circle cx="104.5" cy="4.5" r="2.5" transform="rotate(0,104.5,4.5)"/><circle cx="104.5" cy="9.5" r="2.5" transform="rotate(0,104.5,9.5)"/><circle cx="104.5" cy="14.5" r="2.5" transform="rotate(0,104.5,14.5)"/><circle cx="104.5" cy="29.5" r="2.5" transform="rotate(0,104.5,29.5)"/><circle cx="104.5" cy="34.5" r="2.5" transform="rotate(0,104.5,34.5)"/><circle cx="104.5" cy="39.5" r="2.5" transform="rotate(0,104.5,39.5)"/><circle cx="104.5" cy="64.5" r="2.5" transform="rotate(0,104.5,64.5)"/><circle cx="104.5" cy="69.5" r="2.5" transform="rotate(0,104.5,69.5)"/><circle cx="104.5" cy="74.5" r="2.5" transform="rotate(0,104.5,74.5)"/><circle cx="104.5" cy="84.5" r="2.5" transform="rotate(0,104.5,84.5)"/><circle cx="104.5" cy="89.5" r="2.5" transform="rotate(0,104.5,89.5)"/><circle cx="104.5" cy="94.5" r="2.5" transform="rotate(0,104.5,94.5)"/><circle cx="104.5" cy="99.5" r="2.5" transform="rotate(0,104.5,99.5)"/><circle cx="104.5" cy="104.5" r="2.5" transform="rotate(0,104.5,104.5)"/><circle cx="104.5" cy="119.5" r="2.5" transform="rotate(0,104.5,119.5)"/><circle cx="104.5" cy="124.5" r="2.5" transform="rotate(0,104.5,124.5)"/><circle cx="104.5" cy="164.5" r="2.5" transform="rotate(0,104.5,164.5)"/><circle cx="104.5" cy="174.5" r="2.5" transform="rotate(0,104.5,174.5)"/><circle cx="104.5" cy="179.5" r="2.5" transform="rotate(0,104.5,179.5)"/><circle cx="104.5" cy="184.5" r="2.5" transform="rotate(0,104.5,184.5)"/><circle cx="104.5" cy="189.5" r="2.5" transform="rotate(0,104.5,189.5)"/><circle cx="104.5" cy="194.5" r="2.5" transform="rotate(0,104.5,194.5)"/><circle cx="104.5" cy="199.5" r="2.5" transform="rotate(0,104.5,199.5)"/><circle cx="104.5" cy="204.5" r="2.5" transform="rotate(0,104.5,204.5)"/><circle cx="104.5" cy="214.5" r="2.5" transform="rotate(0,104.5,214.5)"/><circle cx="104.5" cy="219.5" r="2.5" transform="rotate(0,104.5,219.5)"/><circle cx="104.5" cy="234.5" r="2.5" transform="rotate(0,104.5,234.5)"/><circle cx="104.5" cy="239.5" r="2.5" transform="rotate(0,104.5,239.5)"/><circle cx="109.5" cy="14.5" r="2.5" transform="rotate(0,109.5,14.5)"/><circle cx="109.5" cy="24.5" r="2.5" transform="rotate(0,109.5,24.5)"/><circle cx="109.5" cy="29.5" r="2.5" transform="rotate(0,109.5,29.5)"/><circle cx="109.5" cy="44.5" r="2.5" transform="rotate(0,109.5,44.5)"/><circle cx="109.5" cy="49.5" r="2.5" transform="rotate(0,109.5,49.5)"/><circle cx="109.5" cy="54.5" r="2.5" transform="rotate(0,109.5,54.5)"/><circle cx="109.5" cy="59.5" r="2.5" transform="rotate(0,109.5,59.5)"/><circle cx="109.5" cy="64.5" r="2.5" transform="rotate(0,109.5,64.5)"/><circle cx="109.5" cy="89.5" r="2.5" transform="rotate(0,109.5,89.5)"/><circle cx="109.5" cy="94.5" r="2.5" transform="rotate(0,109.5,94.5)"/><circle cx="109.5" cy="114.5" r="2.5" transform="rotate(0,109.5,114.5)"/><circle cx="109.5" cy="124.5" r="2.5" transform="rotate(0,109.5,124.5)"/><circle cx="109.5" cy="129.5" r="2.5" transform="rotate(0,109.5,129.5)"/><circle cx="109.5" cy="139.5" r="2.5" transform="rotate(0,109.5,139.5)"/><circle cx="109.5" cy="144.5" r="2.5" transform="rotate(0,109.5,144.5)"/><circle cx="109.5" cy="154.5" r="2.5" transform="rotate(0,109.5,154.5)"/><circle cx="109.5" cy="169.5" r="2.5" transform="rotate(0,109.5,169.5)"/><circle cx="109.5" cy="179.5" r="2.5" transform="rotate(0,109.5,179.5)"/><circle cx="109.5" cy="209.5" r="2.5" transform="rotate(0,109.5,209.5)"/><circle cx="109.5" cy="214.5" r="2.5" transform="rotate(0,109.5,214.5)"/><circle cx="109.5" cy="234.5" r="2.5" transform="rotate(0,109.5,234.5)"/><circle cx="114.5" cy="4.5" r="2.5" transform="rotate(0,114.5,4.5)"/><circle cx="114.5" cy="9.5" r="2.5" transform="rotate(0,114.5,9.5)"/><circle cx="114.5" cy="14.5" r="2.5" transform="rotate(0,114.5,14.5)"/><circle cx="114.5" cy="19.5" r="2.5" transform="rotate(0,114.5,19.5)"/><circle cx="114.5" cy="24.5" r="2.5" transform="rotate(0,114.5,24.5)"/><circle cx="114.5" cy="29.5" r="2.5" transform="rotate(0,114.5,29.5)"/><circle cx="114.5" cy="34.5" r="2.5" transform="rotate(0,114.5,34.5)"/><circle cx="114.5" cy="39.5" r="2.5" transform="rotate(0,114.5,39.5)"/><circle cx="114.5" cy="44.5" r="2.5" transform="rotate(0,114.5,44.5)"/><circle cx="114.5" cy="59.5" r="2.5" transform="rotate(0,114.5,59.5)"/><circle cx="114.5" cy="69.5" r="2.5" transform="rotate(0,114.5,69.5)"/><circle cx="114.5" cy="74.5" r="2.5" transform="rotate(0,114.5,74.5)"/><circle cx="114.5" cy="94.5" r="2.5" transform="rotate(0,114.5,94.5)"/><circle cx="114.5" cy="109.5" r="2.5" transform="rotate(0,114.5,109.5)"/><circle cx="114.5" cy="114.5" r="2.5" transform="rotate(0,114.5,114.5)"/><circle cx="114.5" cy="119.5" r="2.5" transform="rotate(0,114.5,119.5)"/><circle cx="114.5" cy="124.5" r="2.5" transform="rotate(0,114.5,124.5)"/><circle cx="114.5" cy="129.5" r="2.5" transform="rotate(0,114.5,129.5)"/><circle cx="114.5" cy="134.5" r="2.5" transform="rotate(0,114.5,134.5)"/><circle cx="114.5" cy="149.5" r="2.5" transform="rotate(0,114.5,149.5)"/><circle cx="114.5" cy="169.5" r="2.5" transform="rotate(0,114.5,169.5)"/><circle cx="114.5" cy="174.5" r="2.5" transform="rotate(0,114.5,174.5)"/><circle cx="114.5" cy="184.5" r="2.5" transform="rotate(0,114.5,184.5)"/><circle cx="114.5" cy="194.5" r="2.5" transform="rotate(0,114.5,194.5)"/><circle cx="114.5" cy="204.5" r="2.5" transform="rotate(0,114.5,204.5)"/><circle cx="114.5" cy="209.5" r="2.5" transform="rotate(0,114.5,209.5)"/><circle cx="114.5" cy="214.5" r="2.5" transform="rotate(0,114.5,214.5)"/><circle cx="114.5" cy="219.5" r="2.5" transform="rotate(0,114.5,219.5)"/><circle cx="114.5" cy="224.5" r="2.5" transform="rotate(0,114.5,224.5)"/><circle cx="114.5" cy="234.5" r="2.5" transform="rotate(0,114.5,234.5)"/><circle cx="114.5" cy="239.5" r="2.5" transform="rotate(0,114.5,239.5)"/><circle cx="114.5" cy="244.5" r="2.5" transform="rotate(0,114.5,244.5)"/><circle cx="119.5" cy="4.5" r="2.5" transform="rotate(0,119.5,4.5)"/><circle cx="119.5" cy="9.5" r="2.5" transform="rotate(0,119.5,9.5)"/><circle cx="119.5" cy="14.5" r="2.5" transform="rotate(0,119.5,14.5)"/><circle cx="119.5" cy="19.5" r="2.5" transform="rotate(0,119.5,19.5)"/><circle cx="119.5" cy="24.5" r="2.5" transform="rotate(0,119.5,24.5)"/><circle cx="119.5" cy="44.5" r="2.5" transform="rotate(0,119.5,44.5)"/><circle cx="119.5" cy="49.5" r="2.5" transform="rotate(0,119.5,49.5)"/><circle cx="119.5" cy="54.5" r="2.5" transform="rotate(0,119.5,54.5)"/><circle cx="119.5" cy="64.5" r="2.5" transform="rotate(0,119.5,64.5)"/><circle cx="119.5" cy="69.5" r="2.5" transform="rotate(0,119.5,69.5)"/><circle cx="119.5" cy="79.5" r="2.5" transform="rotate(0,119.5,79.5)"/><circle cx="119.5" cy="89.5" r="2.5" transform="rotate(0,119.5,89.5)"/><circle cx="119.5" cy="94.5" r="2.5" transform="rotate(0,119.5,94.5)"/><circle cx="119.5" cy="109.5" r="2.5" transform="rotate(0,119.5,109.5)"/><circle cx="119.5" cy="114.5" r="2.5" transform="rotate(0,119.5,114.5)"/><circle cx="119.5" cy="134.5" r="2.5" transform="rotate(0,119.5,134.5)"/><circle cx="119.5" cy="139.5" r="2.5" transform="rotate(0,119.5,139.5)"/><circle cx="119.5" cy="144.5" r="2.5" transform="rotate(0,119.5,144.5)"/><circle cx="119.5" cy="154.5" r="2.5" transform="rotate(0,119.5,154.5)"/><circle cx="119.5" cy="174.5" r="2.5" transform="rotate(0,119.5,174.5)"/><circle cx="119.5" cy="194.5" r="2.5" transform="rotate(0,119.5,194.5)"/><circle cx="119.5" cy="199.5" r="2.5" transform="rotate(0,119.5,199.5)"/><circle cx="119.5" cy="204.5" r="2.5" transform="rotate(0,119.5,204.5)"/><circle cx="119.5" cy="224.5" r="2.5" transform="rotate(0,119.5,224.5)"/><circle cx="119.5" cy="239.5" r="2.5" transform="rotate(0,119.5,239.5)"/><circle cx="119.5" cy="244.5" r="2.5" transform="rotate(0,119.5,244.5)"/><circle cx="124.5" cy="4.5" r="2.5" transform="rotate(0,124.5,4.5)"/><circle cx="124.5" cy="9.5" r="2.5" transform="rotate(0,124.5,9.5)"/><circle cx="124.5" cy="24.5" r="2.5" transform="rotate(0,124.5,24.5)"/><circle cx="124.5" cy="34.5" r="2.5" transform="rotate(0,124.5,34.5)"/><circle cx="124.5" cy="44.5" r="2.5" transform="rotate(0,124.5,44.5)"/><circle cx="124.5" cy="49.5" r="2.5" transform="rotate(0,124.5,49.5)"/><circle cx="124.5" cy="64.5" r="2.5" transform="rotate(0,124.5,64.5)"/><circle cx="124.5" cy="89.5" r="2.5" transform="rotate(0,124.5,89.5)"/><circle cx="124.5" cy="99.5" r="2.5" transform="rotate(0,124.5,99.5)"/><circle cx="124.5" cy="114.5" r="2.5" transform="rotate(0,124.5,114.5)"/><circle cx="124.5" cy="124.5" r="2.5" transform="rotate(0,124.5,124.5)"/><circle cx="124.5" cy="134.5" r="2.5" transform="rotate(0,124.5,134.5)"/><circle cx="124.5" cy="159.5" r="2.5" transform="rotate(0,124.5,159.5)"/><circle cx="124.5" cy="164.5" r="2.5" transform="rotate(0,124.5,164.5)"/><circle cx="124.5" cy="174.5" r="2.5" transform="rotate(0,124.5,174.5)"/><circle cx="124.5" cy="179.5" r="2.5" transform="rotate(0,124.5,179.5)"/><circle cx="124.5" cy="184.5" r="2.5" transform="rotate(0,124.5,184.5)"/><circle cx="124.5" cy="189.5" r="2.5" transform="rotate(0,124.5,189.5)"/><circle cx="124.5" cy="199.5" r="2.5" transform="rotate(0,124.5,199.5)"/><circle cx="124.5" cy="204.5" r="2.5" transform="rotate(0,124.5,204.5)"/><circle cx="124.5" cy="214.5" r="2.5" transform="rotate(0,124.5,214.5)"/><circle cx="124.5" cy="224.5" r="2.5" transform="rotate(0,124.5,224.5)"/><circle cx="124.5" cy="229.5" r="2.5" transform="rotate(0,124.5,229.5)"/><circle cx="124.5" cy="234.5" r="2.5" transform="rotate(0,124.5,234.5)"/><circle cx="129.5" cy="19.5" r="2.5" transform="rotate(0,129.5,19.5)"/><circle cx="129.5" cy="24.5" r="2.5" transform="rotate(0,129.5,24.5)"/><circle cx="129.5" cy="44.5" r="2.5" transform="rotate(0,129.5,44.5)"/><circle cx="129.5" cy="49.5" r="2.5" transform="rotate(0,129.5,49.5)"/><circle cx="129.5" cy="54.5" r="2.5" transform="rotate(0,129.5,54.5)"/><circle cx="129.5" cy="59.5" r="2.5" transform="rotate(0,129.5,59.5)"/><circle cx="129.5" cy="69.5" r="2.5" transform="rotate(0,129.5,69.5)"/><circle cx="129.5" cy="84.5" r="2.5" transform="rotate(0,129.5,84.5)"/><circle cx="129.5" cy="104.5" r="2.5" transform="rotate(0,129.5,104.5)"/><circle cx="129.5" cy="109.5" r="2.5" transform="rotate(0,129.5,109.5)"/><circle cx="129.5" cy="114.5" r="2.5" transform="rotate(0,129.5,114.5)"/><circle cx="129.5" cy="134.5" r="2.5" transform="rotate(0,129.5,134.5)"/><circle cx="129.5" cy="149.5" r="2.5" transform="rotate(0,129.5,149.5)"/><circle cx="129.5" cy="164.5" r="2.5" transform="rotate(0,129.5,164.5)"/><circle cx="129.5" cy="189.5" r="2.5" transform="rotate(0,129.5,189.5)"/><circle cx="129.5" cy="199.5" r="2.5" transform="rotate(0,129.5,199.5)"/><circle cx="129.5" cy="204.5" r="2.5" transform="rotate(0,129.5,204.5)"/><circle cx="129.5" cy="224.5" r="2.5" transform="rotate(0,129.5,224.5)"/><circle cx="134.5" cy="9.5" r="2.5" transform="rotate(0,134.5,9.5)"/><circle cx="134.5" cy="19.5" r="2.5" transform="rotate(0,134.5,19.5)"/><circle cx="134.5" cy="24.5" r="2.5" transform="rotate(0,134.5,24.5)"/><circle cx="134.5" cy="29.5" r="2.5" transform="rotate(0,134.5,29.5)"/><circle cx="134.5" cy="34.5" r="2.5" transform="rotate(0,134.5,34.5)"/><circle cx="134.5" cy="39.5" r="2.5" transform="rotate(0,134.5,39.5)"/><circle cx="134.5" cy="44.5" r="2.5" transform="rotate(0,134.5,44.5)"/><circle cx="134.5" cy="49.5" r="2.5" transform="rotate(0,134.5,49.5)"/><circle cx="134.5" cy="54.5" r="2.5" transform="rotate(0,134.5,54.5)"/><circle cx="134.5" cy="59.5" r="2.5" transform="rotate(0,134.5,59.5)"/><circle cx="134.5" cy="64.5" r="2.5" transform="rotate(0,134.5,64.5)"/><circle cx="134.5" cy="69.5" r="2.5" transform="rotate(0,134.5,69.5)"/><circle cx="134.5" cy="79.5" r="2.5" transform="rotate(0,134.5,79.5)"/><circle cx="134.5" cy="84.5" r="2.5" transform="rotate(0,134.5,84.5)"/><circle cx="134.5" cy="89.5" r="2.5" transform="rotate(0,134.5,89.5)"/><circle cx="134.5" cy="94.5" r="2.5" transform="rotate(0,134.5,94.5)"/><circle cx="134.5" cy="99.5" r="2.5" transform="rotate(0,134.5,99.5)"/><circle cx="134.5" cy="104.5" r="2.5" transform="rotate(0,134.5,104.5)"/><circle cx="134.5" cy="114.5" r="2.5" transform="rotate(0,134.5,114.5)"/><circle cx="134.5" cy="119.5" r="2.5" transform="rotate(0,134.5,119.5)"/><circle cx="134.5" cy="124.5" r="2.5" transform="rotate(0,134.5,124.5)"/><circle cx="134.5" cy="129.5" r="2.5" transform="rotate(0,134.5,129.5)"/><circle cx="134.5" cy="134.5" r="2.5" transform="rotate(0,134.5,134.5)"/><circle cx="134.5" cy="144.5" r="2.5" transform="rotate(0,134.5,144.5)"/><circle cx="134.5" cy="149.5" r="2.5" transform="rotate(0,134.5,149.5)"/><circle cx="134.5" cy="154.5" r="2.5" transform="rotate(0,134.5,154.5)"/><circle cx="134.5" cy="159.5" r="2.5" transform="rotate(0,134.5,159.5)"/><circle cx="134.5" cy="164.5" r="2.5" transform="rotate(0,134.5,164.5)"/><circle cx="134.5" cy="169.5" r="2.5" transform="rotate(0,134.5,169.5)"/><circle cx="134.5" cy="174.5" r="2.5" transform="rotate(0,134.5,174.5)"/><circle cx="134.5" cy="179.5" r="2.5" transform="rotate(0,134.5,179.5)"/><circle cx="134.5" cy="194.5" r="2.5" transform="rotate(0,134.5,194.5)"/><circle cx="134.5" cy="204.5" r="2.5" transform="rotate(0,134.5,204.5)"/><circle cx="134.5" cy="209.5" r="2.5" transform="rotate(0,134.5,209.5)"/><circle cx="134.5" cy="214.5" r="2.5" transform="rotate(0,134.5,214.5)"/><circle cx="134.5" cy="219.5" r="2.5" transform="rotate(0,134.5,219.5)"/><circle cx="134.5" cy="224.5" r="2.5" transform="rotate(0,134.5,224.5)"/><circle cx="134.5" cy="229.5" r="2.5" transform="rotate(0,134.5,229.5)"/><circle cx="134.5" cy="239.5" r="2.5" transform="rotate(0,134.5,239.5)"/><circle cx="134.5" cy="244.5" r="2.5" transform="rotate(0,134.5,244.5)"/><circle cx="139.5" cy="4.5" r="2.5" transform="rotate(0,139.5,4.5)"/><circle cx="139.5" cy="9.5" r="2.5" transform="rotate(0,139.5,9.5)"/><circle cx="139.5" cy="14.5" r="2.5" transform="rotate(0,139.5,14.5)"/><circle cx="139.5" cy="19.5" r="2.5" transform="rotate(0,139.5,19.5)"/><circle cx="139.5" cy="29.5" r="2.5" transform="rotate(0,139.5,29.5)"/><circle cx="139.5" cy="39.5" r="2.5" transform="rotate(0,139.5,39.5)"/><circle cx="139.5" cy="44.5" r="2.5" transform="rotate(0,139.5,44.5)"/><circle cx="139.5" cy="54.5" r="2.5" transform="rotate(0,139.5,54.5)"/><circle cx="139.5" cy="59.5" r="2.5" transform="rotate(0,139.5,59.5)"/><circle cx="139.5" cy="69.5" r="2.5" transform="rotate(0,139.5,69.5)"/><circle cx="139.5" cy="79.5" r="2.5" transform="rotate(0,139.5,79.5)"/><circle cx="139.5" cy="84.5" r="2.5" transform="rotate(0,139.5,84.5)"/><circle cx="139.5" cy="94.5" r="2.5" transform="rotate(0,139.5,94.5)"/><circle cx="139.5" cy="99.5" r="2.5" transform="rotate(0,139.5,99.5)"/><circle cx="139.5" cy="104.5" r="2.5" transform="rotate(0,139.5,104.5)"/><circle cx="139.5" cy="114.5" r="2.5" transform="rotate(0,139.5,114.5)"/><circle cx="139.5" cy="134.5" r="2.5" transform="rotate(0,139.5,134.5)"/><circle cx="139.5" cy="139.5" r="2.5" transform="rotate(0,139.5,139.5)"/><circle cx="139.5" cy="144.5" r="2.5" transform="rotate(0,139.5,144.5)"/><circle cx="139.5" cy="149.5" r="2.5" transform="rotate(0,139.5,149.5)"/><circle cx="139.5" cy="164.5" r="2.5" transform="rotate(0,139.5,164.5)"/><circle cx="139.5" cy="174.5" r="2.5" transform="rotate(0,139.5,174.5)"/><circle cx="139.5" cy="179.5" r="2.5" transform="rotate(0,139.5,179.5)"/><circle cx="139.5" cy="204.5" r="2.5" transform="rotate(0,139.5,204.5)"/><circle cx="139.5" cy="209.5" r="2.5" transform="rotate(0,139.5,209.5)"/><circle cx="139.5" cy="219.5" r="2.5" transform="rotate(0,139.5,219.5)"/><circle cx="139.5" cy="239.5" r="2.5" transform="rotate(0,139.5,239.5)"/><circle cx="144.5" cy="4.5" r="2.5" transform="rotate(0,144.5,4.5)"/><circle cx="144.5" cy="14.5" r="2.5" transform="rotate(0,144.5,14.5)"/><circle cx="144.5" cy="29.5" r="2.5" transform="rotate(0,144.5,29.5)"/><circle cx="144.5" cy="34.5" r="2.5" transform="rotate(0,144.5,34.5)"/><circle cx="144.5" cy="44.5" r="2.5" transform="rotate(0,144.5,44.5)"/><circle cx="144.5" cy="69.5" r="2.5" transform="rotate(0,144.5,69.5)"/><circle cx="144.5" cy="84.5" r="2.5" transform="rotate(0,144.5,84.5)"/><circle cx="144.5" cy="94.5" r="2.5" transform="rotate(0,144.5,94.5)"/><circle cx="144.5" cy="104.5" r="2.5" transform="rotate(0,144.5,104.5)"/><circle cx="144.5" cy="109.5" r="2.5" transform="rotate(0,144.5,109.5)"/><circle cx="144.5" cy="114.5" r="2.5" transform="rotate(0,144.5,114.5)"/><circle cx="144.5" cy="129.5" r="2.5" transform="rotate(0,144.5,129.5)"/><circle cx="144.5" cy="134.5" r="2.5" transform="rotate(0,144.5,134.5)"/><circle cx="144.5" cy="144.5" r="2.5" transform="rotate(0,144.5,144.5)"/><circle cx="144.5" cy="149.5" r="2.5" transform="rotate(0,144.5,149.5)"/><circle cx="144.5" cy="159.5" r="2.5" transform="rotate(0,144.5,159.5)"/><circle cx="144.5" cy="174.5" r="2.5" transform="rotate(0,144.5,174.5)"/><circle cx="144.5" cy="179.5" r="2.5" transform="rotate(0,144.5,179.5)"/><circle cx="144.5" cy="184.5" r="2.5" transform="rotate(0,144.5,184.5)"/><circle cx="144.5" cy="194.5" r="2.5" transform="rotate(0,144.5,194.5)"/><circle cx="144.5" cy="199.5" r="2.5" transform="rotate(0,144.5,199.5)"/><circle cx="144.5" cy="214.5" r="2.5" transform="rotate(0,144.5,214.5)"/><circle cx="144.5" cy="229.5" r="2.5" transform="rotate(0,144.5,229.5)"/><circle cx="144.5" cy="234.5" r="2.5" transform="rotate(0,144.5,234.5)"/><circle cx="149.5" cy="49.5" r="2.5" transform="rotate(0,149.5,49.5)"/><circle cx="149.5" cy="54.5" r="2.5" transform="rotate(0,149.5,54.5)"/><circle cx="149.5" cy="59.5" r="2.5" transform="rotate(0,149.5,59.5)"/><circle cx="149.5" cy="64.5" r="2.5" transform="rotate(0,149.5,64.5)"/><circle cx="149.5" cy="94.5" r="2.5" transform="rotate(0,149.5,94.5)"/><circle cx="149.5" cy="99.5" r="2.5" transform="rotate(0,149.5,99.5)"/><circle cx="149.5" cy="109.5" r="2.5" transform="rotate(0,149.5,109.5)"/><circle cx="149.5" cy="124.5" r="2.5" transform="rotate(0,149.5,124.5)"/><circle cx="149.5" cy="134.5" r="2.5" transform="rotate(0,149.5,134.5)"/><circle cx="149.5" cy="144.5" r="2.5" transform="rotate(0,149.5,144.5)"/><circle cx="149.5" cy="149.5" r="2.5" transform="rotate(0,149.5,149.5)"/><circle cx="149.5" cy="154.5" r="2.5" transform="rotate(0,149.5,154.5)"/><circle cx="149.5" cy="159.5" r="2.5" transform="rotate(0,149.5,159.5)"/><circle cx="149.5" cy="164.5" r="2.5" transform="rotate(0,149.5,164.5)"/><circle cx="149.5" cy="169.5" r="2.5" transform="rotate(0,149.5,169.5)"/><circle cx="149.5" cy="179.5" r="2.5" transform="rotate(0,149.5,179.5)"/><circle cx="149.5" cy="189.5" r="2.5" transform="rotate(0,149.5,189.5)"/><circle cx="149.5" cy="199.5" r="2.5" transform="rotate(0,149.5,199.5)"/><circle cx="149.5" cy="204.5" r="2.5" transform="rotate(0,149.5,204.5)"/><circle cx="149.5" cy="209.5" r="2.5" transform="rotate(0,149.5,209.5)"/><circle cx="154.5" cy="4.5" r="2.5" transform="rotate(0,154.5,4.5)"/><circle cx="154.5" cy="14.5" r="2.5" transform="rotate(0,154.5,14.5)"/><circle cx="154.5" cy="19.5" r="2.5" transform="rotate(0,154.5,19.5)"/><circle cx="154.5" cy="24.5" r="2.5" transform="rotate(0,154.5,24.5)"/><circle cx="154.5" cy="34.5" r="2.5" transform="rotate(0,154.5,34.5)"/><circle cx="154.5" cy="54.5" r="2.5" transform="rotate(0,154.5,54.5)"/><circle cx="154.5" cy="59.5" r="2.5" transform="rotate(0,154.5,59.5)"/><circle cx="154.5" cy="69.5" r="2.5" transform="rotate(0,154.5,69.5)"/><circle cx="154.5" cy="74.5" r="2.5" transform="rotate(0,154.5,74.5)"/><circle cx="154.5" cy="84.5" r="2.5" transform="rotate(0,154.5,84.5)"/><circle cx="154.5" cy="94.5" r="2.5" transform="rotate(0,154.5,94.5)"/><circle cx="154.5" cy="99.5" r="2.5" transform="rotate(0,154.5,99.5)"/><circle cx="154.5" cy="104.5" r="2.5" transform="rotate(0,154.5,104.5)"/><circle cx="154.5" cy="114.5" r="2.5" transform="rotate(0,154.5,114.5)"/><circle cx="154.5" cy="119.5" r="2.5" transform="rotate(0,154.5,119.5)"/><circle cx="154.5" cy="134.5" r="2.5" transform="rotate(0,154.5,134.5)"/><circle cx="154.5" cy="139.5" r="2.5" transform="rotate(0,154.5,139.5)"/><circle cx="154.5" cy="144.5" r="2.5" transform="rotate(0,154.5,144.5)"/><circle cx="154.5" cy="149.5" r="2.5" transform="rotate(0,154.5,149.5)"/><circle cx="154.5" cy="159.5" r="2.5" transform="rotate(0,154.5,159.5)"/><circle cx="154.5" cy="164.5" r="2.5" transform="rotate(0,154.5,164.5)"/><circle cx="154.5" cy="174.5" r="2.5" transform="rotate(0,154.5,174.5)"/><circle cx="154.5" cy="179.5" r="2.5" transform="rotate(0,154.5,179.5)"/><circle cx="154.5" cy="184.5" r="2.5" transform="rotate(0,154.5,184.5)"/><circle cx="154.5" cy="194.5" r="2.5" transform="rotate(0,154.5,194.5)"/><circle cx="154.5" cy="199.5" r="2.5" transform="rotate(0,154.5,199.5)"/><circle cx="154.5" cy="209.5" r="2.5" transform="rotate(0,154.5,209.5)"/><circle cx="154.5" cy="214.5" r="2.5" transform="rotate(0,154.5,214.5)"/><circle cx="154.5" cy="229.5" r="2.5" transform="rotate(0,154.5,229.5)"/><circle cx="154.5" cy="234.5" r="2.5" transform="rotate(0,154.5,234.5)"/><circle cx="154.5" cy="239.5" r="2.5" transform="rotate(0,154.5,239.5)"/><circle cx="154.5" cy="244.5" r="2.5" transform="rotate(0,154.5,244.5)"/><circle cx="159.5" cy="9.5" r="2.5" transform="rotate(0,159.5,9.5)"/><circle cx="159.5" cy="24.5" r="2.5" transform="rotate(0,159.5,24.5)"/><circle cx="159.5" cy="39.5" r="2.5" transform="rotate(0,159.5,39.5)"/><circle cx="159.5" cy="44.5" r="2.5" transform="rotate(0,159.5,44.5)"/><circle cx="159.5" cy="84.5" r="2.5" transform="rotate(0,159.5,84.5)"/><circle cx="159.5" cy="99.5" r="2.5" transform="rotate(0,159.5,99.5)"/><circle cx="159.5" cy="104.5" r="2.5" transform="rotate(0,159.5,104.5)"/><circle cx="159.5" cy="109.5" r="2.5" transform="rotate(0,159.5,109.5)"/><circle cx="159.5" cy="114.5" r="2.5" transform="rotate(0,159.5,114.5)"/><circle cx="159.5" cy="124.5" r="2.5" transform="rotate(0,159.5,124.5)"/><circle cx="159.5" cy="139.5" r="2.5" transform="rotate(0,159.5,139.5)"/><circle cx="159.5" cy="154.5" r="2.5" transform="rotate(0,159.5,154.5)"/><circle cx="159.5" cy="159.5" r="2.5" transform="rotate(0,159.5,159.5)"/><circle cx="159.5" cy="179.5" r="2.5" transform="rotate(0,159.5,179.5)"/><circle cx="159.5" cy="184.5" r="2.5" transform="rotate(0,159.5,184.5)"/><circle cx="159.5" cy="189.5" r="2.5" transform="rotate(0,159.5,189.5)"/><circle cx="159.5" cy="194.5" r="2.5" transform="rotate(0,159.5,194.5)"/><circle cx="159.5" cy="204.5" r="2.5" transform="rotate(0,159.5,204.5)"/><circle cx="159.5" cy="224.5" r="2.5" transform="rotate(0,159.5,224.5)"/><circle cx="159.5" cy="239.5" r="2.5" transform="rotate(0,159.5,239.5)"/><circle cx="164.5" cy="9.5" r="2.5" transform="rotate(0,164.5,9.5)"/><circle cx="164.5" cy="19.5" r="2.5" transform="rotate(0,164.5,19.5)"/><circle cx="164.5" cy="29.5" r="2.5" transform="rotate(0,164.5,29.5)"/><circle cx="164.5" cy="34.5" r="2.5" transform="rotate(0,164.5,34.5)"/><circle cx="164.5" cy="39.5" r="2.5" transform="rotate(0,164.5,39.5)"/><circle cx="164.5" cy="44.5" r="2.5" transform="rotate(0,164.5,44.5)"/><circle cx="164.5" cy="54.5" r="2.5" transform="rotate(0,164.5,54.5)"/><circle cx="164.5" cy="59.5" r="2.5" transform="rotate(0,164.5,59.5)"/><circle cx="164.5" cy="64.5" r="2.5" transform="rotate(0,164.5,64.5)"/><circle cx="164.5" cy="74.5" r="2.5" transform="rotate(0,164.5,74.5)"/><circle cx="164.5" cy="99.5" r="2.5" transform="rotate(0,164.5,99.5)"/><circle cx="164.5" cy="104.5" r="2.5" transform="rotate(0,164.5,104.5)"/><circle cx="164.5" cy="109.5" r="2.5" transform="rotate(0,164.5,109.5)"/><circle cx="164.5" cy="124.5" r="2.5" transform="rotate(0,164.5,124.5)"/><circle cx="164.5" cy="129.5" r="2.5" transform="rotate(0,164.5,129.5)"/><circle cx="164.5" cy="169.5" r="2.5" transform="rotate(0,164.5,169.5)"/><circle cx="164.5" cy="184.5" r="2.5" transform="rotate(0,164.5,184.5)"/><circle cx="164.5" cy="189.5" r="2.5" transform="rotate(0,164.5,189.5)"/><circle cx="164.5" cy="194.5" r="2.5" transform="rotate(0,164.5,194.5)"/><circle cx="164.5" cy="199.5" r="2.5" transform="rotate(0,164.5,199.5)"/><circle cx="164.5" cy="214.5" r="2.5" transform="rotate(0,164.5,214.5)"/><circle cx="164.5" cy="219.5" r="2.5" transform="rotate(0,164.5,219.5)"/><circle cx="164.5" cy="224.5" r="2.5" transform="rotate(0,164.5,224.5)"/><circle cx="164.5" cy="239.5" r="2.5" transform="rotate(0,164.5,239.5)"/><circle cx="164.5" cy="244.5" r="2.5" transform="rotate(0,164.5,244.5)"/><circle cx="169.5" cy="4.5" r="2.5" transform="rotate(0,169.5,4.5)"/><circle cx="169.5" cy="9.5" r="2.5" transform="rotate(0,169.5,9.5)"/><circle cx="169.5" cy="14.5" r="2.5" transform="rotate(0,169.5,14.5)"/><circle cx="169.5" cy="24.5" r="2.5" transform="rotate(0,169.5,24.5)"/><circle cx="169.5" cy="54.5" r="2.5" transform="rotate(0,169.5,54.5)"/><circle cx="169.5" cy="74.5" r="2.5" transform="rotate(0,169.5,74.5)"/><circle cx="169.5" cy="84.5" r="2.5" transform="rotate(0,169.5,84.5)"/><circle cx="169.5" cy="89.5" r="2.5" transform="rotate(0,169.5,89.5)"/><circle cx="169.5" cy="94.5" r="2.5" transform="rotate(0,169.5,94.5)"/><circle cx="169.5" cy="99.5" r="2.5" transform="rotate(0,169.5,99.5)"/><circle cx="169.5" cy="124.5" r="2.5" transform="rotate(0,169.5,124.5)"/><circle cx="169.5" cy="129.5" r="2.5" transform="rotate(0,169.5,129.5)"/><circle cx="169.5" cy="149.5" r="2.5" transform="rotate(0,169.5,149.5)"/><circle cx="169.5" cy="154.5" r="2.5" transform="rotate(0,169.5,154.5)"/><circle cx="169.5" cy="159.5" r="2.5" transform="rotate(0,169.5,159.5)"/><circle cx="169.5" cy="179.5" r="2.5" transform="rotate(0,169.5,179.5)"/><circle cx="169.5" cy="184.5" r="2.5" transform="rotate(0,169.5,184.5)"/><circle cx="169.5" cy="189.5" r="2.5" transform="rotate(0,169.5,189.5)"/><circle cx="169.5" cy="199.5" r="2.5" transform="rotate(0,169.5,199.5)"/><circle cx="169.5" cy="204.5" r="2.5" transform="rotate(0,169.5,204.5)"/><circle cx="169.5" cy="209.5" r="2.5" transform="rotate(0,169.5,209.5)"/><circle cx="169.5" cy="214.5" r="2.5" transform="rotate(0,169.5,214.5)"/><circle cx="169.5" cy="219.5" r="2.5" transform="rotate(0,169.5,219.5)"/><circle cx="169.5" cy="234.5" r="2.5" transform="rotate(0,169.5,234.5)"/><circle cx="169.5" cy="239.5" r="2.5" transform="rotate(0,169.5,239.5)"/><circle cx="169.5" cy="244.5" r="2.5" transform="rotate(0,169.5,244.5)"/><circle cx="174.5" cy="9.5" r="2.5" transform="rotate(0,174.5,9.5)"/><circle cx="174.5" cy="24.5" r="2.5" transform="rotate(0,174.5,24.5)"/><circle cx="174.5" cy="34.5" r="2.5" transform="rotate(0,174.5,34.5)"/><circle cx="174.5" cy="39.5" r="2.5" transform="rotate(0,174.5,39.5)"/><circle cx="174.5" cy="44.5" r="2.5" transform="rotate(0,174.5,44.5)"/><circle cx="174.5" cy="49.5" r="2.5" transform="rotate(0,174.5,49.5)"/><circle cx="174.5" cy="54.5" r="2.5" transform="rotate(0,174.5,54.5)"/><circle cx="174.5" cy="59.5" r="2.5" transform="rotate(0,174.5,59.5)"/><circle cx="174.5" cy="64.5" r="2.5" transform="rotate(0,174.5,64.5)"/><circle cx="174.5" cy="74.5" r="2.5" transform="rotate(0,174.5,74.5)"/><circle cx="174.5" cy="79.5" r="2.5" transform="rotate(0,174.5,79.5)"/><circle cx="174.5" cy="89.5" r="2.5" transform="rotate(0,174.5,89.5)"/><circle cx="174.5" cy="99.5" r="2.5" transform="rotate(0,174.5,99.5)"/><circle cx="174.5" cy="109.5" r="2.5" transform="rotate(0,174.5,109.5)"/><circle cx="174.5" cy="114.5" r="2.5" transform="rotate(0,174.5,114.5)"/><circle cx="174.5" cy="129.5" r="2.5" transform="rotate(0,174.5,129.5)"/><circle cx="174.5" cy="134.5" r="2.5" transform="rotate(0,174.5,134.5)"/><circle cx="174.5" cy="149.5" r="2.5" transform="rotate(0,174.5,149.5)"/><circle cx="174.5" cy="169.5" r="2.5" transform="rotate(0,174.5,169.5)"/><circle cx="174.5" cy="174.5" r="2.5" transform="rotate(0,174.5,174.5)"/><circle cx="174.5" cy="184.5" r="2.5" transform="rotate(0,174.5,184.5)"/><circle cx="174.5" cy="199.5" r="2.5" transform="rotate(0,174.5,199.5)"/><circle cx="174.5" cy="209.5" r="2.5" transform="rotate(0,174.5,209.5)"/><circle cx="174.5" cy="214.5" r="2.5" transform="rotate(0,174.5,214.5)"/><circle cx="174.5" cy="219.5" r="2.5" transform="rotate(0,174.5,219.5)"/><circle cx="174.5" cy="229.5" r="2.5" transform="rotate(0,174.5,229.5)"/><circle cx="174.5" cy="239.5" r="2.5" transform="rotate(0,174.5,239.5)"/><circle cx="174.5" cy="244.5" r="2.5" transform="rotate(0,174.5,244.5)"/><circle cx="179.5" cy="4.5" r="2.5" transform="rotate(0,179.5,4.5)"/><circle cx="179.5" cy="9.5" r="2.5" transform="rotate(0,179.5,9.5)"/><circle cx="179.5" cy="29.5" r="2.5" transform="rotate(0,179.5,29.5)"/><circle cx="179.5" cy="39.5" r="2.5" transform="rotate(0,179.5,39.5)"/><circle cx="179.5" cy="54.5" r="2.5" transform="rotate(0,179.5,54.5)"/><circle cx="179.5" cy="59.5" r="2.5" transform="rotate(0,179.5,59.5)"/><circle cx="179.5" cy="64.5" r="2.5" transform="rotate(0,179.5,64.5)"/><circle cx="179.5" cy="74.5" r="2.5" transform="rotate(0,179.5,74.5)"/><circle cx="179.5" cy="89.5" r="2.5" transform="rotate(0,179.5,89.5)"/><circle cx="179.5" cy="99.5" r="2.5" transform="rotate(0,179.5,99.5)"/><circle cx="179.5" cy="104.5" r="2.5" transform="rotate(0,179.5,104.5)"/><circle cx="179.5" cy="109.5" r="2.5" transform="rotate(0,179.5,109.5)"/><circle cx="179.5" cy="124.5" r="2.5" transform="rotate(0,179.5,124.5)"/><circle cx="179.5" cy="134.5" r="2.5" transform="rotate(0,179.5,134.5)"/><circle cx="179.5" cy="139.5" r="2.5" transform="rotate(0,179.5,139.5)"/><circle cx="179.5" cy="144.5" r="2.5" transform="rotate(0,179.5,144.5)"/><circle cx="179.5" cy="149.5" r="2.5" transform="rotate(0,179.5,149.5)"/><circle cx="179.5" cy="164.5" r="2.5" transform="rotate(0,179.5,164.5)"/><circle cx="179.5" cy="184.5" r="2.5" transform="rotate(0,179.5,184.5)"/><circle cx="179.5" cy="204.5" r="2.5" transform="rotate(0,179.5,204.5)"/><circle cx="179.5" cy="219.5" r="2.5" transform="rotate(0,179.5,219.5)"/><circle cx="184.5" cy="14.5" r="2.5" transform="rotate(0,184.5,14.5)"/><circle cx="184.5" cy="24.5" r="2.5" transform="rotate(0,184.5,24.5)"/><circle cx="184.5" cy="34.5" r="2.5" transform="rotate(0,184.5,34.5)"/><circle cx="184.5" cy="44.5" r="2.5" transform="rotate(0,184.5,44.5)"/><circle cx="184.5" cy="49.5" r="2.5" transform="rotate(0,184.5,49.5)"/><circle cx="184.5" cy="54.5" r="2.5" transform="rotate(0,184.5,54.5)"/><circle cx="184.5" cy="69.5" r="2.5" transform="rotate(0,184.5,69.5)"/><circle cx="184.5" cy="79.5" r="2.5" transform="rotate(0,184.5,79.5)"/><circle cx="184.5" cy="94.5" r="2.5" transform="rotate(0,184.5,94.5)"/><circle cx="184.5" cy="109.5" r="2.5" transform="rotate(0,184.5,109.5)"/><circle cx="184.5" cy="119.5" r="2.5" transform="rotate(0,184.5,119.5)"/><circle cx="184.5" cy="124.5" r="2.5" transform="rotate(0,184.5,124.5)"/><circle cx="184.5" cy="129.5" r="2.5" transform="rotate(0,184.5,129.5)"/><circle cx="184.5" cy="149.5" r="2.5" transform="rotate(0,184.5,149.5)"/><circle cx="184.5" cy="159.5" r="2.5" transform="rotate(0,184.5,159.5)"/><circle cx="184.5" cy="169.5" r="2.5" transform="rotate(0,184.5,169.5)"/><circle cx="184.5" cy="174.5" r="2.5" transform="rotate(0,184.5,174.5)"/><circle cx="184.5" cy="179.5" r="2.5" transform="rotate(0,184.5,179.5)"/><circle cx="184.5" cy="184.5" r="2.5" transform="rotate(0,184.5,184.5)"/><circle cx="184.5" cy="189.5" r="2.5" transform="rotate(0,184.5,189.5)"/><circle cx="184.5" cy="194.5" r="2.5" transform="rotate(0,184.5,194.5)"/><circle cx="184.5" cy="199.5" r="2.5" transform="rotate(0,184.5,199.5)"/><circle cx="184.5" cy="219.5" r="2.5" transform="rotate(0,184.5,219.5)"/><circle cx="184.5" cy="229.5" r="2.5" transform="rotate(0,184.5,229.5)"/><circle cx="184.5" cy="234.5" r="2.5" transform="rotate(0,184.5,234.5)"/><circle cx="184.5" cy="244.5" r="2.5" transform="rotate(0,184.5,244.5)"/><circle cx="189.5" cy="14.5" r="2.5" transform="rotate(0,189.5,14.5)"/><circle cx="189.5" cy="19.5" r="2.5" transform="rotate(0,189.5,19.5)"/><circle cx="189.5" cy="24.5" r="2.5" transform="rotate(0,189.5,24.5)"/><circle cx="189.5" cy="39.5" r="2.5" transform="rotate(0,189.5,39.5)"/><circle cx="189.5" cy="59.5" r="2.5" transform="rotate(0,189.5,59.5)"/><circle cx="189.5" cy="74.5" r="2.5" transform="rotate(0,189.5,74.5)"/><circle cx="189.5" cy="79.5" r="2.5" transform="rotate(0,189.5,79.5)"/><circle cx="189.5" cy="84.5" r="2.5" transform="rotate(0,189.5,84.5)"/><circle cx="189.5" cy="114.5" r="2.5" transform="rotate(0,189.5,114.5)"/><circle cx="189.5" cy="134.5" r="2.5" transform="rotate(0,189.5,134.5)"/><circle cx="189.5" cy="144.5" r="2.5" transform="rotate(0,189.5,144.5)"/><circle cx="189.5" cy="154.5" r="2.5" transform="rotate(0,189.5,154.5)"/><circle cx="189.5" cy="164.5" r="2.5" transform="rotate(0,189.5,164.5)"/><circle cx="189.5" cy="179.5" r="2.5" transform="rotate(0,189.5,179.5)"/><circle cx="189.5" cy="189.5" r="2.5" transform="rotate(0,189.5,189.5)"/><circle cx="189.5" cy="199.5" r="2.5" transform="rotate(0,189.5,199.5)"/><circle cx="189.5" cy="219.5" r="2.5" transform="rotate(0,189.5,219.5)"/><circle cx="189.5" cy="229.5" r="2.5" transform="rotate(0,189.5,229.5)"/><circle cx="194.5" cy="9.5" r="2.5" transform="rotate(0,194.5,9.5)"/><circle cx="194.5" cy="29.5" r="2.5" transform="rotate(0,194.5,29.5)"/><circle cx="194.5" cy="34.5" r="2.5" transform="rotate(0,194.5,34.5)"/><circle cx="194.5" cy="39.5" r="2.5" transform="rotate(0,194.5,39.5)"/><circle cx="194.5" cy="69.5" r="2.5" transform="rotate(0,194.5,69.5)"/><circle cx="194.5" cy="74.5" r="2.5" transform="rotate(0,194.5,74.5)"/><circle cx="194.5" cy="79.5" r="2.5" transform="rotate(0,194.5,79.5)"/><circle cx="194.5" cy="99.5" r="2.5" transform="rotate(0,194.5,99.5)"/><circle cx="194.5" cy="109.5" r="2.5" transform="rotate(0,194.5,109.5)"/><circle cx="194.5" cy="114.5" r="2.5" transform="rotate(0,194.5,114.5)"/><circle cx="194.5" cy="124.5" r="2.5" transform="rotate(0,194.5,124.5)"/><circle cx="194.5" cy="134.5" r="2.5" transform="rotate(0,194.5,134.5)"/><circle cx="194.5" cy="139.5" r="2.5" transform="rotate(0,194.5,139.5)"/><circle cx="194.5" cy="144.5" r="2.5" transform="rotate(0,194.5,144.5)"/><circle cx="194.5" cy="164.5" r="2.5" transform="rotate(0,194.5,164.5)"/><circle cx="194.5" cy="169.5" r="2.5" transform="rotate(0,194.5,169.5)"/><circle cx="194.5" cy="174.5" r="2.5" transform="rotate(0,194.5,174.5)"/><circle cx="194.5" cy="184.5" r="2.5" transform="rotate(0,194.5,184.5)"/><circle cx="194.5" cy="189.5" r="2.5" transform="rotate(0,194.5,189.5)"/><circle cx="194.5" cy="204.5" r="2.5" transform="rotate(0,194.5,204.5)"/><circle cx="194.5" cy="209.5" r="2.5" transform="rotate(0,194.5,209.5)"/><circle cx="194.5" cy="214.5" r="2.5" transform="rotate(0,194.5,214.5)"/><circle cx="194.5" cy="229.5" r="2.5" transform="rotate(0,194.5,229.5)"/><circle cx="194.5" cy="234.5" r="2.5" transform="rotate(0,194.5,234.5)"/><circle cx="194.5" cy="239.5" r="2.5" transform="rotate(0,194.5,239.5)"/><circle cx="194.5" cy="244.5" r="2.5" transform="rotate(0,194.5,244.5)"/><circle cx="199.5" cy="9.5" r="2.5" transform="rotate(0,199.5,9.5)"/><circle cx="199.5" cy="14.5" r="2.5" transform="rotate(0,199.5,14.5)"/><circle cx="199.5" cy="19.5" r="2.5" transform="rotate(0,199.5,19.5)"/><circle cx="199.5" cy="39.5" r="2.5" transform="rotate(0,199.5,39.5)"/><circle cx="199.5" cy="44.5" r="2.5" transform="rotate(0,199.5,44.5)"/><circle cx="199.5" cy="59.5" r="2.5" transform="rotate(0,199.5,59.5)"/><circle cx="199.5" cy="64.5" r="2.5" transform="rotate(0,199.5,64.5)"/><circle cx="199.5" cy="89.5" r="2.5" transform="rotate(0,199.5,89.5)"/><circle cx="199.5" cy="94.5" r="2.5" transform="rotate(0,199.5,94.5)"/><circle cx="199.5" cy="99.5" r="2.5" transform="rotate(0,199.5,99.5)"/><circle cx="199.5" cy="109.5" r="2.5" transform="rotate(0,199.5,109.5)"/><circle cx="199.5" cy="114.5" r="2.5" transform="rotate(0,199.5,114.5)"/><circle cx="199.5" cy="119.5" r="2.5" transform="rotate(0,199.5,119.5)"/><circle cx="199.5" cy="134.5" r="2.5" transform="rotate(0,199.5,134.5)"/><circle cx="199.5" cy="139.5" r="2.5" transform="rotate(0,199.5,139.5)"/><circle cx="199.5" cy="144.5" r="2.5" transform="rotate(0,199.5,144.5)"/><circle cx="199.5" cy="149.5" r="2.5" transform="rotate(0,199.5,149.5)"/><circle cx="199.5" cy="164.5" r="2.5" transform="rotate(0,199.5,164.5)"/><circle cx="199.5" cy="174.5" r="2.5" transform="rotate(0,199.5,174.5)"/><circle cx="199.5" cy="179.5" r="2.5" transform="rotate(0,199.5,179.5)"/><circle cx="199.5" cy="184.5" r="2.5" transform="rotate(0,199.5,184.5)"/><circle cx="199.5" cy="189.5" r="2.5" transform="rotate(0,199.5,189.5)"/><circle cx="199.5" cy="194.5" r="2.5" transform="rotate(0,199.5,194.5)"/><circle cx="199.5" cy="209.5" r="2.5" transform="rotate(0,199.5,209.5)"/><circle cx="199.5" cy="214.5" r="2.5" transform="rotate(0,199.5,214.5)"/><circle cx="199.5" cy="219.5" r="2.5" transform="rotate(0,199.5,219.5)"/><circle cx="199.5" cy="239.5" r="2.5" transform="rotate(0,199.5,239.5)"/><circle cx="204.5" cy="4.5" r="2.5" transform="rotate(0,204.5,4.5)"/><circle cx="204.5" cy="9.5" r="2.5" transform="rotate(0,204.5,9.5)"/><circle cx="204.5" cy="14.5" r="2.5" transform="rotate(0,204.5,14.5)"/><circle cx="204.5" cy="34.5" r="2.5" transform="rotate(0,204.5,34.5)"/><circle cx="204.5" cy="39.5" r="2.5" transform="rotate(0,204.5,39.5)"/><circle cx="204.5" cy="49.5" r="2.5" transform="rotate(0,204.5,49.5)"/><circle cx="204.5" cy="79.5" r="2.5" transform="rotate(0,204.5,79.5)"/><circle cx="204.5" cy="89.5" r="2.5" transform="rotate(0,204.5,89.5)"/><circle cx="204.5" cy="94.5" r="2.5" transform="rotate(0,204.5,94.5)"/><circle cx="204.5" cy="99.5" r="2.5" transform="rotate(0,204.5,99.5)"/><circle cx="204.5" cy="104.5" r="2.5" transform="rotate(0,204.5,104.5)"/><circle cx="204.5" cy="109.5" r="2.5" transform="rotate(0,204.5,109.5)"/><circle cx="204.5" cy="114.5" r="2.5" transform="rotate(0,204.5,114.5)"/><circle cx="204.5" cy="119.5" r="2.5" transform="rotate(0,204.5,119.5)"/><circle cx="204.5" cy="124.5" r="2.5" transform="rotate(0,204.5,124.5)"/><circle cx="204.5" cy="129.5" r="2.5" transform="rotate(0,204.5,129.5)"/><circle cx="204.5" cy="134.5" r="2.5" transform="rotate(0,204.5,134.5)"/><circle cx="204.5" cy="139.5" r="2.5" transform="rotate(0,204.5,139.5)"/><circle cx="204.5" cy="144.5" r="2.5" transform="rotate(0,204.5,144.5)"/><circle cx="204.5" cy="159.5" r="2.5" transform="rotate(0,204.5,159.5)"/><circle cx="204.5" cy="169.5" r="2.5" transform="rotate(0,204.5,169.5)"/><circle cx="204.5" cy="174.5" r="2.5" transform="rotate(0,204.5,174.5)"/><circle cx="204.5" cy="179.5" r="2.5" transform="rotate(0,204.5,179.5)"/><circle cx="204.5" cy="184.5" r="2.5" transform="rotate(0,204.5,184.5)"/><circle cx="204.5" cy="194.5" r="2.5" transform="rotate(0,204.5,194.5)"/><circle cx="204.5" cy="199.5" r="2.5" transform="rotate(0,204.5,199.5)"/><circle cx="204.5" cy="204.5" r="2.5" transform="rotate(0,204.5,204.5)"/><circle cx="204.5" cy="209.5" r="2.5" transform="rotate(0,204.5,209.5)"/><circle cx="204.5" cy="214.5" r="2.5" transform="rotate(0,204.5,214.5)"/><circle cx="204.5" cy="219.5" r="2.5" transform="rotate(0,204.5,219.5)"/><circle cx="204.5" cy="224.5" r="2.5" transform="rotate(0,204.5,224.5)"/><circle cx="204.5" cy="239.5" r="2.5" transform="rotate(0,204.5,239.5)"/><circle cx="209.5" cy="44.5" r="2.5" transform="rotate(0,209.5,44.5)"/><circle cx="209.5" cy="54.5" r="2.5" transform="rotate(0,209.5,54.5)"/><circle cx="209.5" cy="64.5" r="2.5" transform="rotate(0,209.5,64.5)"/><circle cx="209.5" cy="69.5" r="2.5" transform="rotate(0,209.5,69.5)"/><circle cx="209.5" cy="74.5" r="2.5" transform="rotate(0,209.5,74.5)"/><circle cx="209.5" cy="94.5" r="2.5" transform="rotate(0,209.5,94.5)"/><circle cx="209.5" cy="99.5" r="2.5" transform="rotate(0,209.5,99.5)"/><circle cx="209.5" cy="104.5" r="2.5" transform="rotate(0,209.5,104.5)"/><circle cx="209.5" cy="109.5" r="2.5" transform="rotate(0,209.5,109.5)"/><circle cx="209.5" cy="114.5" r="2.5" transform="rotate(0,209.5,114.5)"/><circle cx="209.5" cy="134.5" r="2.5" transform="rotate(0,209.5,134.5)"/><circle cx="209.5" cy="139.5" r="2.5" transform="rotate(0,209.5,139.5)"/><circle cx="209.5" cy="149.5" r="2.5" transform="rotate(0,209.5,149.5)"/><circle cx="209.5" cy="174.5" r="2.5" transform="rotate(0,209.5,174.5)"/><circle cx="209.5" cy="189.5" r="2.5" transform="rotate(0,209.5,189.5)"/><circle cx="209.5" cy="194.5" r="2.5" transform="rotate(0,209.5,194.5)"/><circle cx="209.5" cy="204.5" r="2.5" transform="rotate(0,209.5,204.5)"/><circle cx="209.5" cy="224.5" r="2.5" transform="rotate(0,209.5,224.5)"/><circle cx="214.5" cy="49.5" r="2.5" transform="rotate(0,214.5,49.5)"/><circle cx="214.5" cy="59.5" r="2.5" transform="rotate(0,214.5,59.5)"/><circle cx="214.5" cy="69.5" r="2.5" transform="rotate(0,214.5,69.5)"/><circle cx="214.5" cy="74.5" r="2.5" transform="rotate(0,214.5,74.5)"/><circle cx="214.5" cy="79.5" r="2.5" transform="rotate(0,214.5,79.5)"/><circle cx="214.5" cy="89.5" r="2.5" transform="rotate(0,214.5,89.5)"/><circle cx="214.5" cy="94.5" r="2.5" transform="rotate(0,214.5,94.5)"/><circle cx="214.5" cy="99.5" r="2.5" transform="rotate(0,214.5,99.5)"/><circle cx="214.5" cy="104.5" r="2.5" transform="rotate(0,214.5,104.5)"/><circle cx="214.5" cy="114.5" r="2.5" transform="rotate(0,214.5,114.5)"/><circle cx="214.5" cy="124.5" r="2.5" transform="rotate(0,214.5,124.5)"/><circle cx="214.5" cy="134.5" r="2.5" transform="rotate(0,214.5,134.5)"/><circle cx="214.5" cy="154.5" r="2.5" transform="rotate(0,214.5,154.5)"/><circle cx="214.5" cy="159.5" r="2.5" transform="rotate(0,214.5,159.5)"/><circle cx="214.5" cy="169.5" r="2.5" transform="rotate(0,214.5,169.5)"/><circle cx="214.5" cy="204.5" r="2.5" transform="rotate(0,214.5,204.5)"/><circle cx="214.5" cy="214.5" r="2.5" transform="rotate(0,214.5,214.5)"/><circle cx="214.5" cy="224.5" r="2.5" transform="rotate(0,214.5,224.5)"/><circle cx="214.5" cy="229.5" r="2.5" transform="rotate(0,214.5,229.5)"/><circle cx="214.5" cy="239.5" r="2.5" transform="rotate(0,214.5,239.5)"/><circle cx="214.5" cy="244.5" r="2.5" transform="rotate(0,214.5,244.5)"/><circle cx="219.5" cy="64.5" r="2.5" transform="rotate(0,219.5,64.5)"/><circle cx="219.5" cy="69.5" r="2.5" transform="rotate(0,219.5,69.5)"/><circle cx="219.5" cy="74.5" r="2.5" transform="rotate(0,219.5,74.5)"/><circle cx="219.5" cy="84.5" r="2.5" transform="rotate(0,219.5,84.5)"/><circle cx="219.5" cy="89.5" r="2.5" transform="rotate(0,219.5,89.5)"/><circle cx="219.5" cy="94.5" r="2.5" transform="rotate(0,219.5,94.5)"/><circle cx="219.5" cy="99.5" r="2.5" transform="rotate(0,219.5,99.5)"/><circle cx="219.5" cy="109.5" r="2.5" transform="rotate(0,219.5,109.5)"/><circle cx="219.5" cy="114.5" r="2.5" transform="rotate(0,219.5,114.5)"/><circle cx="219.5" cy="134.5" r="2.5" transform="rotate(0,219.5,134.5)"/><circle cx="219.5" cy="144.5" r="2.5" transform="rotate(0,219.5,144.5)"/><circle cx="219.5" cy="159.5" r="2.5" transform="rotate(0,219.5,159.5)"/><circle cx="219.5" cy="164.5" r="2.5" transform="rotate(0,219.5,164.5)"/><circle cx="219.5" cy="174.5" r="2.5" transform="rotate(0,219.5,174.5)"/><circle cx="219.5" cy="179.5" r="2.5" transform="rotate(0,219.5,179.5)"/><circle cx="219.5" cy="189.5" r="2.5" transform="rotate(0,219.5,189.5)"/><circle cx="219.5" cy="194.5" r="2.5" transform="rotate(0,219.5,194.5)"/><circle cx="219.5" cy="199.5" r="2.5" transform="rotate(0,219.5,199.5)"/><circle cx="219.5" cy="204.5" r="2.5" transform="rotate(0,219.5,204.5)"/><circle cx="219.5" cy="224.5" r="2.5" transform="rotate(0,219.5,224.5)"/><circle cx="224.5" cy="44.5" r="2.5" transform="rotate(0,224.5,44.5)"/><circle cx="224.5" cy="49.5" r="2.5" transform="rotate(0,224.5,49.5)"/><circle cx="224.5" cy="59.5" r="2.5" transform="rotate(0,224.5,59.5)"/><circle cx="224.5" cy="69.5" r="2.5" transform="rotate(0,224.5,69.5)"/><circle cx="224.5" cy="79.5" r="2.5" transform="rotate(0,224.5,79.5)"/><circle cx="224.5" cy="84.5" r="2.5" transform="rotate(0,224.5,84.5)"/><circle cx="224.5" cy="89.5" r="2.5" transform="rotate(0,224.5,89.5)"/><circle cx="224.5" cy="99.5" r="2.5" transform="rotate(0,224.5,99.5)"/><circle cx="224.5" cy="109.5" r="2.5" transform="rotate(0,224.5,109.5)"/><circle cx="224.5" cy="114.5" r="2.5" transform="rotate(0,224.5,114.5)"/><circle cx="224.5" cy="119.5" r="2.5" transform="rotate(0,224.5,119.5)"/><circle cx="224.5" cy="124.5" r="2.5" transform="rotate(0,224.5,124.5)"/><circle cx="224.5" cy="129.5" r="2.5" transform="rotate(0,224.5,129.5)"/><circle cx="224.5" cy="134.5" r="2.5" transform="rotate(0,224.5,134.5)"/><circle cx="224.5" cy="144.5" r="2.5" transform="rotate(0,224.5,144.5)"/><circle cx="224.5" cy="149.5" r="2.5" transform="rotate(0,224.5,149.5)"/><circle cx="224.5" cy="169.5" r="2.5" transform="rotate(0,224.5,169.5)"/><circle cx="224.5" cy="174.5" r="2.5" transform="rotate(0,224.5,174.5)"/><circle cx="224.5" cy="179.5" r="2.5" transform="rotate(0,224.5,179.5)"/><circle cx="224.5" cy="184.5" r="2.5" transform="rotate(0,224.5,184.5)"/><circle cx="224.5" cy="189.5" r="2.5" transform="rotate(0,224.5,189.5)"/><circle cx="224.5" cy="194.5" r="2.5" transform="rotate(0,224.5,194.5)"/><circle cx="224.5" cy="199.5" r="2.5" transform="rotate(0,224.5,199.5)"/><circle cx="224.5" cy="204.5" r="2.5" transform="rotate(0,224.5,204.5)"/><circle cx="224.5" cy="209.5" r="2.5" transform="rotate(0,224.5,209.5)"/><circle cx="224.5" cy="214.5" r="2.5" transform="rotate(0,224.5,214.5)"/><circle cx="224.5" cy="219.5" r="2.5" transform="rotate(0,224.5,219.5)"/><circle cx="224.5" cy="224.5" r="2.5" transform="rotate(0,224.5,224.5)"/><circle cx="224.5" cy="234.5" r="2.5" transform="rotate(0,224.5,234.5)"/><circle cx="224.5" cy="244.5" r="2.5" transform="rotate(0,224.5,244.5)"/><circle cx="229.5" cy="44.5" r="2.5" transform="rotate(0,229.5,44.5)"/><circle cx="229.5" cy="59.5" r="2.5" transform="rotate(0,229.5,59.5)"/><circle cx="229.5" cy="64.5" r="2.5" transform="rotate(0,229.5,64.5)"/><circle cx="229.5" cy="79.5" r="2.5" transform="rotate(0,229.5,79.5)"/><circle cx="229.5" cy="84.5" r="2.5" transform="rotate(0,229.5,84.5)"/><circle cx="229.5" cy="99.5" r="2.5" transform="rotate(0,229.5,99.5)"/><circle cx="229.5" cy="119.5" r="2.5" transform="rotate(0,229.5,119.5)"/><circle cx="229.5" cy="124.5" r="2.5" transform="rotate(0,229.5,124.5)"/><circle cx="229.5" cy="129.5" r="2.5" transform="rotate(0,229.5,129.5)"/><circle cx="229.5" cy="134.5" r="2.5" transform="rotate(0,229.5,134.5)"/><circle cx="229.5" cy="139.5" r="2.5" transform="rotate(0,229.5,139.5)"/><circle cx="229.5" cy="144.5" r="2.5" transform="rotate(0,229.5,144.5)"/><circle cx="229.5" cy="154.5" r="2.5" transform="rotate(0,229.5,154.5)"/><circle cx="229.5" cy="159.5" r="2.5" transform="rotate(0,229.5,159.5)"/><circle cx="229.5" cy="164.5" r="2.5" transform="rotate(0,229.5,164.5)"/><circle cx="229.5" cy="179.5" r="2.5" transform="rotate(0,229.5,179.5)"/><circle cx="229.5" cy="184.5" r="2.5" transform="rotate(0,229.5,184.5)"/><circle cx="229.5" cy="189.5" r="2.5" transform="rotate(0,229.5,189.5)"/><circle cx="229.5" cy="214.5" r="2.5" transform="rotate(0,229.5,214.5)"/><circle cx="229.5" cy="224.5" r="2.5" transform="rotate(0,229.5,224.5)"/><circle cx="229.5" cy="229.5" r="2.5" transform="rotate(0,229.5,229.5)"/><circle cx="229.5" cy="244.5" r="2.5" transform="rotate(0,229.5,244.5)"/><circle cx="234.5" cy="44.5" r="2.5" transform="rotate(0,234.5,44.5)"/><circle cx="234.5" cy="69.5" r="2.5" transform="rotate(0,234.5,69.5)"/><circle cx="234.5" cy="99.5" r="2.5" transform="rotate(0,234.5,99.5)"/><circle cx="234.5" cy="104.5" r="2.5" transform="rotate(0,234.5,104.5)"/><circle cx="234.5" cy="119.5" r="2.5" transform="rotate(0,234.5,119.5)"/><circle cx="234.5" cy="129.5" r="2.5" transform="rotate(0,234.5,129.5)"/><circle cx="234.5" cy="134.5" r="2.5" transform="rotate(0,234.5,134.5)"/><circle cx="234.5" cy="144.5" r="2.5" transform="rotate(0,234.5,144.5)"/><circle cx="234.5" cy="154.5" r="2.5" transform="rotate(0,234.5,154.5)"/><circle cx="234.5" cy="169.5" r="2.5" transform="rotate(0,234.5,169.5)"/><circle cx="234.5" cy="174.5" r="2.5" transform="rotate(0,234.5,174.5)"/><circle cx="234.5" cy="179.5" r="2.5" transform="rotate(0,234.5,179.5)"/><circle cx="234.5" cy="184.5" r="2.5" transform="rotate(0,234.5,184.5)"/><circle cx="234.5" cy="189.5" r="2.5" transform="rotate(0,234.5,189.5)"/><circle cx="234.5" cy="194.5" r="2.5" transform="rotate(0,234.5,194.5)"/><circle cx="234.5" cy="199.5" r="2.5" transform="rotate(0,234.5,199.5)"/><circle cx="234.5" cy="209.5" r="2.5" transform="rotate(0,234.5,209.5)"/><circle cx="234.5" cy="214.5" r="2.5" transform="rotate(0,234.5,214.5)"/><circle cx="234.5" cy="234.5" r="2.5" transform="rotate(0,234.5,234.5)"/><circle cx="234.5" cy="239.5" r="2.5" transform="rotate(0,234.5,239.5)"/><circle cx="234.5" cy="244.5" r="2.5" transform="rotate(0,234.5,244.5)"/><circle cx="239.5" cy="49.5" r="2.5" transform="rotate(0,239.5,49.5)"/><circle cx="239.5" cy="69.5" r="2.5" transform="rotate(0,239.5,69.5)"/><circle cx="239.5" cy="74.5" r="2.5" transform="rotate(0,239.5,74.5)"/><circle cx="239.5" cy="79.5" r="2.5" transform="rotate(0,239.5,79.5)"/><circle cx="239.5" cy="89.5" r="2.5" transform="rotate(0,239.5,89.5)"/><circle cx="239.5" cy="94.5" r="2.5" transform="rotate(0,239.5,94.5)"/><circle cx="239.5" cy="124.5" r="2.5" transform="rotate(0,239.5,124.5)"/><circle cx="239.5" cy="134.5" r="2.5" transform="rotate(0,239.5,134.5)"/><circle cx="239.5" cy="139.5" r="2.5" transform="rotate(0,239.5,139.5)"/><circle cx="239.5" cy="154.5" r="2.5" transform="rotate(0,239.5,154.5)"/><circle cx="239.5" cy="164.5" r="2.5" transform="rotate(0,239.5,164.5)"/><circle cx="239.5" cy="174.5" r="2.5" transform="rotate(0,239.5,174.5)"/><circle cx="239.5" cy="189.5" r="2.5" transform="rotate(0,239.5,189.5)"/><circle cx="239.5" cy="194.5" r="2.5" transform="rotate(0,239.5,194.5)"/><circle cx="239.5" cy="209.5" r="2.5" transform="rotate(0,239.5,209.5)"/><circle cx="239.5" cy="214.5" r="2.5" transform="rotate(0,239.5,214.5)"/><circle cx="239.5" cy="219.5" r="2.5" transform="rotate(0,239.5,219.5)"/><circle cx="239.5" cy="224.5" r="2.5" transform="rotate(0,239.5,224.5)"/><circle cx="239.5" cy="244.5" r="2.5" transform="rotate(0,239.5,244.5)"/><circle cx="244.5" cy="54.5" r="2.5" transform="rotate(0,244.5,54.5)"/><circle cx="244.5" cy="69.5" r="2.5" transform="rotate(0,244.5,69.5)"/><circle cx="244.5" cy="74.5" r="2.5" transform="rotate(0,244.5,74.5)"/><circle cx="244.5" cy="84.5" r="2.5" transform="rotate(0,244.5,84.5)"/><circle cx="244.5" cy="94.5" r="2.5" transform="rotate(0,244.5,94.5)"/><circle cx="244.5" cy="99.5" r="2.5" transform="rotate(0,244.5,99.5)"/><circle cx="244.5" cy="114.5" r="2.5" transform="rotate(0,244.5,114.5)"/><circle cx="244.5" cy="124.5" r="2.5" transform="rotate(0,244.5,124.5)"/><circle cx="244.5" cy="134.5" r="2.5" transform="rotate(0,244.5,134.5)"/><circle cx="244.5" cy="144.5" r="2.5" transform="rotate(0,244.5,144.5)"/><circle cx="244.5" cy="149.5" r="2.5" transform="rotate(0,244.5,149.5)"/><circle cx="244.5" cy="154.5" r="2.5" transform="rotate(0,244.5,154.5)"/><circle cx="244.5" cy="184.5" r="2.5" transform="rotate(0,244.5,184.5)"/><circle cx="244.5" cy="194.5" r="2.5" transform="rotate(0,244.5,194.5)"/><circle cx="244.5" cy="199.5" r="2.5" transform="rotate(0,244.5,199.5)"/><circle cx="244.5" cy="214.5" r="2.5" transform="rotate(0,244.5,214.5)"/><circle cx="244.5" cy="229.5" r="2.5" transform="rotate(0,244.5,229.5)"/><circle cx="244.5" cy="234.5" r="2.5" transform="rotate(0,244.5,234.5)"/><circle cx="244.5" cy="239.5" r="2.5" transform="rotate(0,244.5,239.5)"/><circle cx="244.5" cy="244.5" r="2.5" transform="rotate(0,244.5,244.5)"/><circle cx="4.5" cy="4.5" r="2.5" transform="rotate(0,4.5,4.5)"/><circle cx="4.5" cy="9.5" r="2.5" transform="rotate(0,4.5,9.5)"/><circle cx="4.5" cy="14.5" r="2.5" transform="rotate(0,4.5,14.5)"/><circle cx="4.5" cy="19.5" r="2.5" transform="rotate(0,4.5,19.5)"/><circle cx="4.5" cy="24.5" r="2.5" transform="rotate(0,4.5,24.5)"/><circle cx="4.5" cy="29.5" r="2.5" transform="rotate(0,4.5,29.5)"/><circle cx="4.5" cy="34.5" r="2.5" transform="rotate(0,4.5,34.5)"/><circle cx="9.5" cy="4.5" r="2.5" transform="rotate(0,9.5,4.5)"/><circle cx="9.5" cy="34.5" r="2.5" transform="rotate(0,9.5,34.5)"/><circle cx="14.5" cy="4.5" r="2.5" transform="rotate(0,14.5,4.5)"/><circle cx="14.5" cy="34.5" r="2.5" transform="rotate(0,14.5,34.5)"/><circle cx="19.5" cy="4.5" r="2.5" transform="rotate(0,19.5,4.5)"/><circle cx="19.5" cy="34.5" r="2.5" transform="rotate(0,19.5,34.5)"/><circle cx="24.5" cy="4.5" r="2.5" transform="rotate(0,24.5,4.5)"/><circle cx="24.5" cy="34.5" r="2.5" transform="rotate(0,24.5,34.5)"/><circle cx="29.5" cy="4.5" r="2.5" transform="rotate(0,29.5,4.5)"/><circle cx="29.5" cy="34.5" r="2.5" transform="rotate(0,29.5,34.5)"/><circle cx="34.5" cy="4.5" r="2.5" transform="rotate(0,34.5,4.5)"/><circle cx="34.5" cy="9.5" r="2.5" transform="rotate(0,34.5,9.5)"/><circle cx="34.5" cy="14.5" r="2.5" transform="rotate(0,34.5,14.5)"/><circle cx="34.5" cy="19.5" r="2.5" transform="rotate(0,34.5,19.5)"/><circle cx="34.5" cy="24.5" r="2.5" transform="rotate(0,34.5,24.5)"/><circle cx="34.5" cy="29.5" r="2.5" transform="rotate(0,34.5,29.5)"/><circle cx="34.5" cy="34.5" r="2.5" transform="rotate(0,34.5,34.5)"/><circle cx="14.5" cy="14.5" r="2.5" transform="rotate(0,14.5,14.5)"/><circle cx="14.5" cy="19.5" r="2.5" transform="rotate(0,14.5,19.5)"/><circle cx="14.5" cy="24.5" r="2.5" transform="rotate(0,14.5,24.5)"/><circle cx="19.5" cy="14.5" r="2.5" transform="rotate(0,19.5,14.5)"/><circle cx="19.5" cy="19.5" r="2.5" transform="rotate(0,19.5,19.5)"/><circle cx="19.5" cy="24.5" r="2.5" transform="rotate(0,19.5,24.5)"/><circle cx="24.5" cy="14.5" r="2.5" transform="rotate(0,24.5,14.5)"/><circle cx="24.5" cy="19.5" r="2.5" transform="rotate(0,24.5,19.5)"/><circle cx="24.5" cy="24.5" r="2.5" transform="rotate(0,24.5,24.5)"/><circle cx="214.5" cy="4.5" r="2.5" transform="rotate(0,214.5,4.5)"/><circle cx="214.5" cy="9.5" r="2.5" transform="rotate(0,214.5,9.5)"/><circle cx="214.5" cy="14.5" r="2.5" transform="rotate(0,214.5,14.5)"/><circle cx="214.5" cy="19.5" r="2.5" transform="rotate(0,214.5,19.5)"/><circle cx="214.5" cy="24.5" r="2.5" transform="rotate(0,214.5,24.5)"/><circle cx="214.5" cy="29.5" r="2.5" transform="rotate(0,214.5,29.5)"/><circle cx="214.5" cy="34.5" r="2.5" transform="rotate(0,214.5,34.5)"/><circle cx="219.5" cy="4.5" r="2.5" transform="rotate(0,219.5,4.5)"/><circle cx="219.5" cy="34.5" r="2.5" transform="rotate(0,219.5,34.5)"/><circle cx="224.5" cy="4.5" r="2.5" transform="rotate(0,224.5,4.5)"/><circle cx="224.5" cy="34.5" r="2.5" transform="rotate(0,224.5,34.5)"/><circle cx="229.5" cy="4.5" r="2.5" transform="rotate(0,229.5,4.5)"/><circle cx="229.5" cy="34.5" r="2.5" transform="rotate(0,229.5,34.5)"/><circle cx="234.5" cy="4.5" r="2.5" transform="rotate(0,234.5,4.5)"/><circle cx="234.5" cy="34.5" r="2.5" transform="rotate(0,234.5,34.5)"/><circle cx="239.5" cy="4.5" r="2.5" transform="rotate(0,239.5,4.5)"/><circle cx="239.5" cy="34.5" r="2.5" transform="rotate(0,239.5,34.5)"/><circle cx="244.5" cy="4.5" r="2.5" transform="rotate(0,244.5,4.5)"/><circle cx="244.5" cy="9.5" r="2.5" transform="rotate(0,244.5,9.5)"/><circle cx="244.5" cy="14.5" r="2.5" transform="rotate(0,244.5,14.5)"/><circle cx="244.5" cy="19.5" r="2.5" transform="rotate(0,244.5,19.5)"/><circle cx="244.5" cy="24.5" r="2.5" transform="rotate(0,244.5,24.5)"/><circle cx="244.5" cy="29.5" r="2.5" transform="rotate(0,244.5,29.5)"/><circle cx="244.5" cy="34.5" r="2.5" transform="rotate(0,244.5,34.5)"/><circle cx="224.5" cy="14.5" r="2.5" transform="rotate(0,224.5,14.5)"/><circle cx="224.5" cy="19.5" r="2.5" transform="rotate(0,224.5,19.5)"/><circle cx="224.5" cy="24.5" r="2.5" transform="rotate(0,224.5,24.5)"/><circle cx="229.5" cy="14.5" r="2.5" transform="rotate(0,229.5,14.5)"/><circle cx="229.5" cy="19.5" r="2.5" transform="rotate(0,229.5,19.5)"/><circle cx="229.5" cy="24.5" r="2.5" transform="rotate(0,229.5,24.5)"/><circle cx="234.5" cy="14.5" r="2.5" transform="rotate(0,234.5,14.5)"/><circle cx="234.5" cy="19.5" r="2.5" transform="rotate(0,234.5,19.5)"/><circle cx="234.5" cy="24.5" r="2.5" transform="rotate(0,234.5,24.5)"/><circle cx="4.5" cy="214.5" r="2.5" transform="rotate(0,4.5,214.5)"/><circle cx="4.5" cy="219.5" r="2.5" transform="rotate(0,4.5,219.5)"/><circle cx="4.5" cy="224.5" r="2.5" transform="rotate(0,4.5,224.5)"/><circle cx="4.5" cy="229.5" r="2.5" transform="rotate(0,4.5,229.5)"/><circle cx="4.5" cy="234.5" r="2.5" transform="rotate(0,4.5,234.5)"/><circle cx="4.5" cy="239.5" r="2.5" transform="rotate(0,4.5,239.5)"/><circle cx="4.5" cy="244.5" r="2.5" transform="rotate(0,4.5,244.5)"/><circle cx="9.5" cy="214.5" r="2.5" transform="rotate(0,9.5,214.5)"/><circle cx="9.5" cy="244.5" r="2.5" transform="rotate(0,9.5,244.5)"/><circle cx="14.5" cy="214.5" r="2.5" transform="rotate(0,14.5,214.5)"/><circle cx="14.5" cy="244.5" r="2.5" transform="rotate(0,14.5,244.5)"/><circle cx="19.5" cy="214.5" r="2.5" transform="rotate(0,19.5,214.5)"/><circle cx="19.5" cy="244.5" r="2.5" transform="rotate(0,19.5,244.5)"/><circle cx="24.5" cy="214.5" r="2.5" transform="rotate(0,24.5,214.5)"/><circle cx="24.5" cy="244.5" r="2.5" transform="rotate(0,24.5,244.5)"/><circle cx="29.5" cy="214.5" r="2.5" transform="rotate(0,29.5,214.5)"/><circle cx="29.5" cy="244.5" r="2.5" transform="rotate(0,29.5,244.5)"/><circle cx="34.5" cy="214.5" r="2.5" transform="rotate(0,34.5,214.5)"/><circle cx="34.5" cy="219.5" r="2.5" transform="rotate(0,34.5,219.5)"/><circle cx="34.5" cy="224.5" r="2.5" transform="rotate(0,34.5,224.5)"/><circle cx="34.5" cy="229.5" r="2.5" transform="rotate(0,34.5,229.5)"/><circle cx="34.5" cy="234.5" r="2.5" transform="rotate(0,34.5,234.5)"/><circle cx="34.5" cy="239.5" r="2.5" transform="rotate(0,34.5,239.5)"/><circle cx="34.5" cy="244.5" r="2.5" transform="rotate(0,34.5,244.5)"/><circle cx="14.5" cy="224.5" r="2.5" transform="rotate(0,14.5,224.5)"/><circle cx="14.5" cy="229.5" r="2.5" transform="rotate(0,14.5,229.5)"/><circle cx="14.5" cy="234.5" r="2.5" transform="rotate(0,14.5,234.5)"/><circle cx="19.5" cy="224.5" r="2.5" transform="rotate(0,19.5,224.5)"/><circle cx="19.5" cy="229.5" r="2.5" transform="rotate(0,19.5,229.5)"/><circle cx="19.5" cy="234.5" r="2.5" transform="rotate(0,19.5,234.5)"/><circle cx="24.5" cy="224.5" r="2.5" transform="rotate(0,24.5,224.5)"/><circle cx="24.5" cy="229.5" r="2.5" transform="rotate(0,24.5,229.5)"/><circle cx="24.5" cy="234.5" r="2.5" transform="rotate(0,24.5,234.5)"/></clipPath></defs><rect x="0" y="0" height="250" width="250" clip-path="url('#clip-path-background-color')" fill="#000000"/><rect x="0" y="0" height="250" width="250" clip-path="url('#clip-path-dot-color')" fill="#fffb00"/></svg>