<?xml version="1.0" standalone="no"?>
<svg xmlns="http://www.w3.org/2000/svg" width="250" height="250"><defs><clipPath id="clip-path-dot-color"><circle cx="12.5" cy="75.5" r="3.5" transform="rotate(0,12.5,75.5)"/><circle cx="12.5" cy="89.5" r="3.5" transform="rotate(0,12.5,89.5)"/><circle cx="12.5" cy="103.5" r="3.5" transform="rotate(0,12.5,103.5)"/><circle cx="12.5" cy="138.5" r="3.5" transform="rotate(0,12.5,138.5)"/><circle cx="12.5" cy="145.5" r="3.5" transform="rotate(0,12.5,145.5)"/><circle cx="12.5" cy="159.5" r="3.5" transform="rotate(0,12.5,159.5)"/><circle cx="12.5" cy="166.5" r="3.5" transform="rotate(0,12.5,166.5)"/><circle cx="12.5" cy="180.5" r="3.5" transform="rotate(0,12.5,180.5)"/><circle cx="19.5" cy="82.5" r="3.5" transform="rotate(0,19.5,82.5)"/><circle cx="19.5" cy="103.5" r="3.5" transform="rotate(0,19.5,103.5)"/><circle cx="19.5" cy="117.5" r="3.5" transform="rotate(0,19.5,117.5)"/><circle cx="19.5" cy="138.5" r="3.5" transform="rotate(0,19.5,138.5)"/><circle cx="19.5" cy="152.5" r="3.5" transform="rotate(0,19.5,152.5)"/><circle cx="19.5" cy="180.5" r="3.5" transform="rotate(0,19.5,180.5)"/><circle cx="26.5" cy="68.5" r="3.5" transform="rotate(0,26.5,68.5)"/><circle cx="26.5" cy="82.5" r="3.5" transform="rotate(0,26.5,82.5)"/><circle cx="26.5" cy="89.5" r="3.5" transform="rotate(0,26.5,89.5)"/><circle cx="26.5" cy="103.5" r="3.5" transform="rotate(0,26.5,103.5)"/><circle cx="26.5" cy="110.5" r="3.5" transform="rotate(0,26.5,110.5)"/><circle cx="26.5" cy="117.5" r="3.5" transform="rotate(0,26.5,117.5)"/><circle cx="26.5" cy="145.5" r="3.5" transform="rotate(0,26.5,145.5)"/><circle cx="26.5" cy="159.5" r="3.5" transform="rotate(0,26.5,159.5)"/><circle cx="26.5" cy="166.5" r="3.5" transform="rotate(0,26.5,166.5)"/><circle cx="26.5" cy="173.5" r="3.5" transform="rotate(0,26.5,173.5)"/><circle cx="26.5" cy="180.5" r="3.5" transform="rotate(0,26.5,180.5)"/><circle cx="33.5" cy="68.5" r="3.5" transform="rotate(0,33.5,68.5)"/><circle cx="33.5" cy="96.5" r="3.5" transform="rotate(0,33.5,96.5)"/><circle cx="33.5" cy="103.5" r="3.5" transform="rotate(0,33.5,103.5)"/><circle cx="33.5" cy="124.5" r="3.5" transform="rotate(0,33.5,124.5)"/><circle cx="33.5" cy="145.5" r="3.5" transform="rotate(0,33.5,145.5)"/><circle cx="33.5" cy="159.5" r="3.5" transform="rotate(0,33.5,159.5)"/><circle cx="33.5" cy="173.5" r="3.5" transform="rotate(0,33.5,173.5)"/><circle cx="33.5" cy="180.5" r="3.5" transform="rotate(0,33.5,180.5)"/><circle cx="40.5" cy="75.5" r="3.5" transform="rotate(0,40.5,75.5)"/><circle cx="40.5" cy="82.5" r="3.5" transform="rotate(0,40.5,82.5)"/><circle cx="40.5" cy="89.5" r="3.5" transform="rotate(0,40.5,89.5)"/><circle cx="40.5" cy="103.5" r="3.5" transform="rotate(0,40.5,103.5)"/><circle cx="40.5" cy="117.5" r="3.5" transform="rotate(0,40.5,117.5)"/><circle cx="40.5" cy="131.5" r="3.5" transform="rotate(0,40.5,131.5)"/><circle cx="40.5" cy="138.5" r="3.5" transform="rotate(0,40.5,138.5)"/><circle cx="40.5" cy="152.5" r="3.5" transform="rotate(0,40.5,152.5)"/><circle cx="40.5" cy="166.5" r="3.5" transform="rotate(0,40.5,166.5)"/><circle cx="40.5" cy="173.5" r="3.5" transform="rotate(0,40.5,173.5)"/><circle cx="47.5" cy="75.5" r="3.5" transform="rotate(0,47.5,75.5)"/><circle cx="47.5" cy="96.5" r="3.5" transform="rotate(0,47.5,96.5)"/><circle cx="47.5" cy="117.5" r="3.5" transform="rotate(0,47.5,117.5)"/><circle cx="47.5" cy="124.5" r="3.5" transform="rotate(0,47.5,124.5)"/><circle cx="47.5" cy="138.5" r="3.5" transform="rotate(0,47.5,138.5)"/><circle cx="47.5" cy="152.5" r="3.5" transform="rotate(0,47.5,152.5)"/><circle cx="47.5" cy="180.5" r="3.5" transform="rotate(0,47.5,180.5)"/><circle cx="54.5" cy="68.5" r="3.5" transform="rotate(0,54.5,68.5)"/><circle cx="54.5" cy="82.5" r="3.5" transform="rotate(0,54.5,82.5)"/><circle cx="54.5" cy="96.5" r="3.5" transform="rotate(0,54.5,96.5)"/><circle cx="54.5" cy="110.5" r="3.5" transform="rotate(0,54.5,110.5)"/><circle cx="54.5" cy="124.5" r="3.5" transform="rotate(0,54.5,124.5)"/><circle cx="54.5" cy="138.5" r="3.5" transform="rotate(0,54.5,138.5)"/><circle cx="54.5" cy="152.5" r="3.5" transform="rotate(0,54.5,152.5)"/><circle cx="54.5" cy="166.5" r="3.5" transform="rotate(0,54.5,166.5)"/><circle cx="54.5" cy="180.5" r="3.5" transform="rotate(0,54.5,180.5)"/><circle cx="61.5" cy="103.5" r="3.5" transform="rotate(0,61.5,103.5)"/><circle cx="61.5" cy="166.5" r="3.5" transform="rotate(0,61.5,166.5)"/><circle cx="61.5" cy="173.5" r="3.5" transform="rotate(0,61.5,173.5)"/><circle cx="68.5" cy="33.5" r="3.5" transform="rotate(0,68.5,33.5)"/><circle cx="68.5" cy="40.5" r="3.5" transform="rotate(0,68.5,40.5)"/><circle cx="68.5" cy="54.5" r="3.5" transform="rotate(0,68.5,54.5)"/><circle cx="68.5" cy="61.5" r="3.5" transform="rotate(0,68.5,61.5)"/><circle cx="68.5" cy="82.5" r="3.5" transform="rotate(0,68.5,82.5)"/><circle cx="68.5" cy="96.5" r="3.5" transform="rotate(0,68.5,96.5)"/><circle cx="68.5" cy="110.5" r="3.5" transform="rotate(0,68.5,110.5)"/><circle cx="68.5" cy="117.5" r="3.5" transform="rotate(0,68.5,117.5)"/><circle cx="68.5" cy="138.5" r="3.5" transform="rotate(0,68.5,138.5)"/><circle cx="68.5" cy="173.5" r="3.5" transform="rotate(0,68.5,173.5)"/><circle cx="68.5" cy="180.5" r="3.5" transform="rotate(0,68.5,180.5)"/><circle cx="68.5" cy="215.5" r="3.5" transform="rotate(0,68.5,215.5)"/><circle cx="68.5" cy="222.5" r="3.5" transform="rotate(0,68.5,222.5)"/><circle cx="75.5" cy="12.5" r="3.5" transform="rotate(0,75.5,12.5)"/><circle cx="75.5" cy="19.5" r="3.5" transform="rotate(0,75.5,19.5)"/><circle cx="75.5" cy="40.5" r="3.5" transform="rotate(0,75.5,40.5)"/><circle cx="75.5" cy="47.5" r="3.5" transform="rotate(0,75.5,47.5)"/><circle cx="75.5" cy="68.5" r="3.5" transform="rotate(0,75.5,68.5)"/><circle cx="75.5" cy="89.5" r="3.5" transform="rotate(0,75.5,89.5)"/><circle cx="75.5" cy="96.5" r="3.5" transform="rotate(0,75.5,96.5)"/><circle cx="75.5" cy="110.5" r="3.5" transform="rotate(0,75.5,110.5)"/><circle cx="75.5" cy="117.5" r="3.5" transform="rotate(0,75.5,117.5)"/><circle cx="75.5" cy="145.5" r="3.5" transform="rotate(0,75.5,145.5)"/><circle cx="75.5" cy="173.5" r="3.5" transform="rotate(0,75.5,173.5)"/><circle cx="75.5" cy="187.5" r="3.5" transform="rotate(0,75.5,187.5)"/><circle cx="75.5" cy="201.5" r="3.5" transform="rotate(0,75.5,201.5)"/><circle cx="75.5" cy="208.5" r="3.5" transform="rotate(0,75.5,208.5)"/><circle cx="75.5" cy="215.5" r="3.5" transform="rotate(0,75.5,215.5)"/><circle cx="75.5" cy="222.5" r="3.5" transform="rotate(0,75.5,222.5)"/><circle cx="82.5" cy="54.5" r="3.5" transform="rotate(0,82.5,54.5)"/><circle cx="82.5" cy="96.5" r="3.5" transform="rotate(0,82.5,96.5)"/><circle cx="82.5" cy="110.5" r="3.5" transform="rotate(0,82.5,110.5)"/><circle cx="82.5" cy="117.5" r="3.5" transform="rotate(0,82.5,117.5)"/><circle cx="82.5" cy="124.5" r="3.5" transform="rotate(0,82.5,124.5)"/><circle cx="82.5" cy="138.5" r="3.5" transform="rotate(0,82.5,138.5)"/><circle cx="82.5" cy="145.5" r="3.5" transform="rotate(0,82.5,145.5)"/><circle cx="82.5" cy="152.5" r="3.5" transform="rotate(0,82.5,152.5)"/><circle cx="82.5" cy="159.5" r="3.5" transform="rotate(0,82.5,159.5)"/><circle cx="82.5" cy="173.5" r="3.5" transform="rotate(0,82.5,173.5)"/><circle cx="82.5" cy="180.5" r="3.5" transform="rotate(0,82.5,180.5)"/><circle cx="82.5" cy="201.5" r="3.5" transform="rotate(0,82.5,201.5)"/><circle cx="82.5" cy="215.5" r="3.5" transform="rotate(0,82.5,215.5)"/><circle cx="82.5" cy="222.5" r="3.5" transform="rotate(0,82.5,222.5)"/><circle cx="82.5" cy="229.5" r="3.5" transform="rotate(0,82.5,229.5)"/><circle cx="82.5" cy="236.5" r="3.5" transform="rotate(0,82.5,236.5)"/><circle cx="89.5" cy="12.5" r="3.5" transform="rotate(0,89.5,12.5)"/><circle cx="89.5" cy="26.5" r="3.5" transform="rotate(0,89.5,26.5)"/><circle cx="89.5" cy="40.5" r="3.5" transform="rotate(0,89.5,40.5)"/><circle cx="89.5" cy="47.5" r="3.5" transform="rotate(0,89.5,47.5)"/><circle cx="89.5" cy="75.5" r="3.5" transform="rotate(0,89.5,75.5)"/><circle cx="89.5" cy="82.5" r="3.5" transform="rotate(0,89.5,82.5)"/><circle cx="89.5" cy="96.5" r="3.5" transform="rotate(0,89.5,96.5)"/><circle cx="89.5" cy="124.5" r="3.5" transform="rotate(0,89.5,124.5)"/><circle cx="89.5" cy="152.5" r="3.5" transform="rotate(0,89.5,152.5)"/><circle cx="89.5" cy="173.5" r="3.5" transform="rotate(0,89.5,173.5)"/><circle cx="89.5" cy="201.5" r="3.5" transform="rotate(0,89.5,201.5)"/><circle cx="89.5" cy="208.5" r="3.5" transform="rotate(0,89.5,208.5)"/><circle cx="89.5" cy="222.5" r="3.5" transform="rotate(0,89.5,222.5)"/><circle cx="89.5" cy="229.5" r="3.5" transform="rotate(0,89.5,229.5)"/><circle cx="89.5" cy="236.5" r="3.5" transform="rotate(0,89.5,236.5)"/><circle cx="96.5" cy="33.5" r="3.5" transform="rotate(0,96.5,33.5)"/><circle cx="96.5" cy="40.5" r="3.5" transform="rotate(0,96.5,40.5)"/><circle cx="96.5" cy="54.5" r="3.5" transform="rotate(0,96.5,54.5)"/><circle cx="96.5" cy="61.5" r="3.5" transform="rotate(0,96.5,61.5)"/><circle cx="96.5" cy="68.5" r="3.5" transform="rotate(0,96.5,68.5)"/><circle cx="96.5" cy="75.5" r="3.5" transform="rotate(0,96.5,75.5)"/><circle cx="96.5" cy="82.5" r="3.5" transform="rotate(0,96.5,82.5)"/><circle cx="96.5" cy="96.5" r="3.5" transform="rotate(0,96.5,96.5)"/><circle cx="96.5" cy="117.5" r="3.5" transform="rotate(0,96.5,117.5)"/><circle cx="96.5" cy="124.5" r="3.5" transform="rotate(0,96.5,124.5)"/><circle cx="96.5" cy="131.5" r="3.5" transform="rotate(0,96.5,131.5)"/><circle cx="96.5" cy="138.5" r="3.5" transform="rotate(0,96.5,138.5)"/><circle cx="96.5" cy="145.5" r="3.5" transform="rotate(0,96.5,145.5)"/><circle cx="96.5" cy="159.5" r="3.5" transform="rotate(0,96.5,159.5)"/><circle cx="96.5" cy="166.5" r="3.5" transform="rotate(0,96.5,166.5)"/><circle cx="96.5" cy="173.5" r="3.5" transform="rotate(0,96.5,173.5)"/><circle cx="96.5" cy="187.5" r="3.5" transform="rotate(0,96.5,187.5)"/><circle cx="96.5" cy="194.5" r="3.5" transform="rotate(0,96.5,194.5)"/><circle cx="96.5" cy="201.5" r="3.5" transform="rotate(0,96.5,201.5)"/><circle cx="96.5" cy="208.5" r="3.5" transform="rotate(0,96.5,208.5)"/><circle cx="96.5" cy="215.5" r="3.5" transform="rotate(0,96.5,215.5)"/><circle cx="96.5" cy="229.5" r="3.5" transform="rotate(0,96.5,229.5)"/><circle cx="96.5" cy="236.5" r="3.5" transform="rotate(0,96.5,236.5)"/><circle cx="103.5" cy="12.5" r="3.5" transform="rotate(0,103.5,12.5)"/><circle cx="103.5" cy="26.5" r="3.5" transform="rotate(0,103.5,26.5)"/><circle cx="103.5" cy="33.5" r="3.5" transform="rotate(0,103.5,33.5)"/><circle cx="103.5" cy="40.5" r="3.5" transform="rotate(0,103.5,40.5)"/><circle cx="103.5" cy="47.5" r="3.5" transform="rotate(0,103.5,47.5)"/><circle cx="103.5" cy="61.5" r="3.5" transform="rotate(0,103.5,61.5)"/><circle cx="103.5" cy="68.5" r="3.5" transform="rotate(0,103.5,68.5)"/><circle cx="103.5" cy="89.5" r="3.5" transform="rotate(0,103.5,89.5)"/><circle cx="103.5" cy="96.5" r="3.5" transform="rotate(0,103.5,96.5)"/><circle cx="103.5" cy="124.5" r="3.5" transform="rotate(0,103.5,124.5)"/><circle cx="103.5" cy="131.5" r="3.5" transform="rotate(0,103.5,131.5)"/><circle cx="103.5" cy="138.5" r="3.5" transform="rotate(0,103.5,138.5)"/><circle cx="103.5" cy="159.5" r="3.5" transform="rotate(0,103.5,159.5)"/><circle cx="103.5" cy="166.5" r="3.5" transform="rotate(0,103.5,166.5)"/><circle cx="103.5" cy="173.5" r="3.5" transform="rotate(0,103.5,173.5)"/><circle cx="103.5" cy="187.5" r="3.5" transform="rotate(0,103.5,187.5)"/><circle cx="103.5" cy="222.5" r="3.5" transform="rotate(0,103.5,222.5)"/><circle cx="103.5" cy="229.5" r="3.5" transform="rotate(0,103.5,229.5)"/><circle cx="110.5" cy="12.5" r="3.5" transform="rotate(0,110.5,12.5)"/><circle cx="110.5" cy="19.5" r="3.5" transform="rotate(0,110.5,19.5)"/><circle cx="110.5" cy="40.5" r="3.5" transform="rotate(0,110.5,40.5)"/><circle cx="110.5" cy="54.5" r="3.5" transform="rotate(0,110.5,54.5)"/><circle cx="110.5" cy="68.5" r="3.5" transform="rotate(0,110.5,68.5)"/><circle cx="110.5" cy="96.5" r="3.5" transform="rotate(0,110.5,96.5)"/><circle cx="110.5" cy="124.5" r="3.5" transform="rotate(0,110.5,124.5)"/><circle cx="110.5" cy="138.5" r="3.5" transform="rotate(0,110.5,138.5)"/><circle cx="110.5" cy="145.5" r="3.5" transform="rotate(0,110.5,145.5)"/><circle cx="110.5" cy="194.5" r="3.5" transform="rotate(0,110.5,194.5)"/><circle cx="110.5" cy="201.5" r="3.5" transform="rotate(0,110.5,201.5)"/><circle cx="110.5" cy="208.5" r="3.5" transform="rotate(0,110.5,208.5)"/><circle cx="110.5" cy="222.5" r="3.5" transform="rotate(0,110.5,222.5)"/><circle cx="117.5" cy="12.5" r="3.5" transform="rotate(0,117.5,12.5)"/><circle cx="117.5" cy="19.5" r="3.5" transform="rotate(0,117.5,19.5)"/><circle cx="117.5" cy="26.5" r="3.5" transform="rotate(0,117.5,26.5)"/><circle cx="117.5" cy="40.5" r="3.5" transform="rotate(0,117.5,40.5)"/><circle cx="117.5" cy="61.5" r="3.5" transform="rotate(0,117.5,61.5)"/><circle cx="117.5" cy="68.5" r="3.5" transform="rotate(0,117.5,68.5)"/><circle cx="117.5" cy="89.5" r="3.5" transform="rotate(0,117.5,89.5)"/><circle cx="117.5" cy="103.5" r="3.5" transform="rotate(0,117.5,103.5)"/><circle cx="117.5" cy="110.5" r="3.5" transform="rotate(0,117.5,110.5)"/><circle cx="117.5" cy="124.5" r="3.5" transform="rotate(0,117.5,124.5)"/><circle cx="117.5" cy="131.5" r="3.5" transform="rotate(0,117.5,131.5)"/><circle cx="117.5" cy="145.5" r="3.5" transform="rotate(0,117.5,145.5)"/><circle cx="117.5" cy="180.5" r="3.5" transform="rotate(0,117.5,180.5)"/><circle cx="117.5" cy="187.5" r="3.5" transform="rotate(0,117.5,187.5)"/><circle cx="117.5" cy="201.5" r="3.5" transform="rotate(0,117.5,201.5)"/><circle cx="117.5" cy="208.5" r="3.5" transform="rotate(0,117.5,208.5)"/><circle cx="117.5" cy="215.5" r="3.5" transform="rotate(0,117.5,215.5)"/><circle cx="117.5" cy="222.5" r="3.5" transform="rotate(0,117.5,222.5)"/><circle cx="117.5" cy="229.5" r="3.5" transform="rotate(0,117.5,229.5)"/><circle cx="117.5" cy="236.5" r="3.5" transform="rotate(0,117.5,236.5)"/><circle cx="124.5" cy="40.5" r="3.5" transform="rotate(0,124.5,40.5)"/><circle cx="124.5" cy="54.5" r="3.5" transform="rotate(0,124.5,54.5)"/><circle cx="124.5" cy="61.5" r="3.5" transform="rotate(0,124.5,61.5)"/><circle cx="124.5" cy="68.5" r="3.5" transform="rotate(0,124.5,68.5)"/><circle cx="124.5" cy="75.5" r="3.5" transform="rotate(0,124.5,75.5)"/><circle cx="124.5" cy="82.5" r="3.5" transform="rotate(0,124.5,82.5)"/><circle cx="124.5" cy="89.5" r="3.5" transform="rotate(0,124.5,89.5)"/><circle cx="124.5" cy="103.5" r="3.5" transform="rotate(0,124.5,103.5)"/><circle cx="124.5" cy="124.5" r="3.5" transform="rotate(0,124.5,124.5)"/><circle cx="124.5" cy="138.5" r="3.5" transform="rotate(0,124.5,138.5)"/><circle cx="124.5" cy="173.5" r="3.5" transform="rotate(0,124.5,173.5)"/><circle cx="124.5" cy="187.5" r="3.5" transform="rotate(0,124.5,187.5)"/><circle cx="124.5" cy="194.5" r="3.5" transform="rotate(0,124.5,194.5)"/><circle cx="124.5" cy="201.5" r="3.5" transform="rotate(0,124.5,201.5)"/><circle cx="124.5" cy="208.5" r="3.5" transform="rotate(0,124.5,208.5)"/><circle cx="124.5" cy="215.5" r="3.5" transform="rotate(0,124.5,215.5)"/><circle cx="124.5" cy="229.5" r="3.5" transform="rotate(0,124.5,229.5)"/><circle cx="131.5" cy="26.5" r="3.5" transform="rotate(0,131.5,26.5)"/><circle cx="131.5" cy="40.5" r="3.5" transform="rotate(0,131.5,40.5)"/><circle cx="131.5" cy="61.5" r="3.5" transform="rotate(0,131.5,61.5)"/><circle cx="131.5" cy="89.5" r="3.5" transform="rotate(0,131.5,89.5)"/><circle cx="131.5" cy="96.5" r="3.5" transform="rotate(0,131.5,96.5)"/><circle cx="131.5" cy="110.5" r="3.5" transform="rotate(0,131.5,110.5)"/><circle cx="131.5" cy="131.5" r="3.5" transform="rotate(0,131.5,131.5)"/><circle cx="131.5" cy="138.5" r="3.5" transform="rotate(0,131.5,138.5)"/><circle cx="131.5" cy="152.5" r="3.5" transform="rotate(0,131.5,152.5)"/><circle cx="131.5" cy="166.5" r="3.5" transform="rotate(0,131.5,166.5)"/><circle cx="131.5" cy="180.5" r="3.5" transform="rotate(0,131.5,180.5)"/><circle cx="131.5" cy="187.5" r="3.5" transform="rotate(0,131.5,187.5)"/><circle cx="131.5" cy="194.5" r="3.5" transform="rotate(0,131.5,194.5)"/><circle cx="131.5" cy="201.5" r="3.5" transform="rotate(0,131.5,201.5)"/><circle cx="131.5" cy="208.5" r="3.5" transform="rotate(0,131.5,208.5)"/><circle cx="131.5" cy="215.5" r="3.5" transform="rotate(0,131.5,215.5)"/><circle cx="131.5" cy="229.5" r="3.5" transform="rotate(0,131.5,229.5)"/><circle cx="131.5" cy="236.5" r="3.5" transform="rotate(0,131.5,236.5)"/><circle cx="138.5" cy="19.5" r="3.5" transform="rotate(0,138.5,19.5)"/><circle cx="138.5" cy="26.5" r="3.5" transform="rotate(0,138.5,26.5)"/><circle cx="138.5" cy="40.5" r="3.5" transform="rotate(0,138.5,40.5)"/><circle cx="138.5" cy="47.5" r="3.5" transform="rotate(0,138.5,47.5)"/><circle cx="138.5" cy="54.5" r="3.5" transform="rotate(0,138.5,54.5)"/><circle cx="138.5" cy="61.5" r="3.5" transform="rotate(0,138.5,61.5)"/><circle cx="138.5" cy="68.5" r="3.5" transform="rotate(0,138.5,68.5)"/><circle cx="138.5" cy="82.5" r="3.5" transform="rotate(0,138.5,82.5)"/><circle cx="138.5" cy="89.5" r="3.5" transform="rotate(0,138.5,89.5)"/><circle cx="138.5" cy="110.5" r="3.5" transform="rotate(0,138.5,110.5)"/><circle cx="138.5" cy="117.5" r="3.5" transform="rotate(0,138.5,117.5)"/><circle cx="138.5" cy="138.5" r="3.5" transform="rotate(0,138.5,138.5)"/><circle cx="138.5" cy="152.5" r="3.5" transform="rotate(0,138.5,152.5)"/><circle cx="138.5" cy="159.5" r="3.5" transform="rotate(0,138.5,159.5)"/><circle cx="138.5" cy="166.5" r="3.5" transform="rotate(0,138.5,166.5)"/><circle cx="138.5" cy="173.5" r="3.5" transform="rotate(0,138.5,173.5)"/><circle cx="138.5" cy="201.5" r="3.5" transform="rotate(0,138.5,201.5)"/><circle cx="138.5" cy="208.5" r="3.5" transform="rotate(0,138.5,208.5)"/><circle cx="138.5" cy="215.5" r="3.5" transform="rotate(0,138.5,215.5)"/><circle cx="138.5" cy="222.5" r="3.5" transform="rotate(0,138.5,222.5)"/><circle cx="138.5" cy="236.5" r="3.5" transform="rotate(0,138.5,236.5)"/><circle cx="145.5" cy="26.5" r="3.5" transform="rotate(0,145.5,26.5)"/><circle cx="145.5" cy="33.5" r="3.5" transform="rotate(0,145.5,33.5)"/><circle cx="145.5" cy="40.5" r="3.5" transform="rotate(0,145.5,40.5)"/><circle cx="145.5" cy="47.5" r="3.5" transform="rotate(0,145.5,47.5)"/><circle cx="145.5" cy="61.5" r="3.5" transform="rotate(0,145.5,61.5)"/><circle cx="145.5" cy="75.5" r="3.5" transform="rotate(0,145.5,75.5)"/><circle cx="145.5" cy="82.5" r="3.5" transform="rotate(0,145.5,82.5)"/><circle cx="145.5" cy="89.5" r="3.5" transform="rotate(0,145.5,89.5)"/><circle cx="145.5" cy="96.5" r="3.5" transform="rotate(0,145.5,96.5)"/><circle cx="145.5" cy="103.5" r="3.5" transform="rotate(0,145.5,103.5)"/><circle cx="145.5" cy="117.5" r="3.5" transform="rotate(0,145.5,117.5)"/><circle cx="145.5" cy="131.5" r="3.5" transform="rotate(0,145.5,131.5)"/><circle cx="145.5" cy="138.5" r="3.5" transform="rotate(0,145.5,138.5)"/><circle cx="145.5" cy="145.5" r="3.5" transform="rotate(0,145.5,145.5)"/><circle cx="145.5" cy="173.5" r="3.5" transform="rotate(0,145.5,173.5)"/><circle cx="145.5" cy="180.5" r="3.5" transform="rotate(0,145.5,180.5)"/><circle cx="145.5" cy="187.5" r="3.5" transform="rotate(0,145.5,187.5)"/><circle cx="145.5" cy="201.5" r="3.5" transform="rotate(0,145.5,201.5)"/><circle cx="145.5" cy="208.5" r="3.5" transform="rotate(0,145.5,208.5)"/><circle cx="145.5" cy="215.5" r="3.5" transform="rotate(0,145.5,215.5)"/><circle cx="145.5" cy="222.5" r="3.5" transform="rotate(0,145.5,222.5)"/><circle cx="145.5" cy="236.5" r="3.5" transform="rotate(0,145.5,236.5)"/><circle cx="152.5" cy="12.5" r="3.5" transform="rotate(0,152.5,12.5)"/><circle cx="152.5" cy="40.5" r="3.5" transform="rotate(0,152.5,40.5)"/><circle cx="152.5" cy="54.5" r="3.5" transform="rotate(0,152.5,54.5)"/><circle cx="152.5" cy="68.5" r="3.5" transform="rotate(0,152.5,68.5)"/><circle cx="152.5" cy="75.5" r="3.5" transform="rotate(0,152.5,75.5)"/><circle cx="152.5" cy="103.5" r="3.5" transform="rotate(0,152.5,103.5)"/><circle cx="152.5" cy="110.5" r="3.5" transform="rotate(0,152.5,110.5)"/><circle cx="152.5" cy="117.5" r="3.5" transform="rotate(0,152.5,117.5)"/><circle cx="152.5" cy="138.5" r="3.5" transform="rotate(0,152.5,138.5)"/><circle cx="152.5" cy="145.5" r="3.5" transform="rotate(0,152.5,145.5)"/><circle cx="152.5" cy="166.5" r="3.5" transform="rotate(0,152.5,166.5)"/><circle cx="152.5" cy="194.5" r="3.5" transform="rotate(0,152.5,194.5)"/><circle cx="152.5" cy="201.5" r="3.5" transform="rotate(0,152.5,201.5)"/><circle cx="152.5" cy="215.5" r="3.5" transform="rotate(0,152.5,215.5)"/><circle cx="152.5" cy="229.5" r="3.5" transform="rotate(0,152.5,229.5)"/><circle cx="152.5" cy="236.5" r="3.5" transform="rotate(0,152.5,236.5)"/><circle cx="159.5" cy="12.5" r="3.5" transform="rotate(0,159.5,12.5)"/><circle cx="159.5" cy="19.5" r="3.5" transform="rotate(0,159.5,19.5)"/><circle cx="159.5" cy="40.5" r="3.5" transform="rotate(0,159.5,40.5)"/><circle cx="159.5" cy="68.5" r="3.5" transform="rotate(0,159.5,68.5)"/><circle cx="159.5" cy="82.5" r="3.5" transform="rotate(0,159.5,82.5)"/><circle cx="159.5" cy="96.5" r="3.5" transform="rotate(0,159.5,96.5)"/><circle cx="159.5" cy="103.5" r="3.5" transform="rotate(0,159.5,103.5)"/><circle cx="159.5" cy="124.5" r="3.5" transform="rotate(0,159.5,124.5)"/><circle cx="159.5" cy="145.5" r="3.5" transform="rotate(0,159.5,145.5)"/><circle cx="159.5" cy="152.5" r="3.5" transform="rotate(0,159.5,152.5)"/><circle cx="159.5" cy="159.5" r="3.5" transform="rotate(0,159.5,159.5)"/><circle cx="159.5" cy="166.5" r="3.5" transform="rotate(0,159.5,166.5)"/><circle cx="159.5" cy="180.5" r="3.5" transform="rotate(0,159.5,180.5)"/><circle cx="159.5" cy="194.5" r="3.5" transform="rotate(0,159.5,194.5)"/><circle cx="159.5" cy="201.5" r="3.5" transform="rotate(0,159.5,201.5)"/><circle cx="159.5" cy="208.5" r="3.5" transform="rotate(0,159.5,208.5)"/><circle cx="159.5" cy="222.5" r="3.5" transform="rotate(0,159.5,222.5)"/><circle cx="166.5" cy="12.5" r="3.5" transform="rotate(0,166.5,12.5)"/><circle cx="166.5" cy="26.5" r="3.5" transform="rotate(0,166.5,26.5)"/><circle cx="166.5" cy="40.5" r="3.5" transform="rotate(0,166.5,40.5)"/><circle cx="166.5" cy="47.5" r="3.5" transform="rotate(0,166.5,47.5)"/><circle cx="166.5" cy="54.5" r="3.5" transform="rotate(0,166.5,54.5)"/><circle cx="166.5" cy="61.5" r="3.5" transform="rotate(0,166.5,61.5)"/><circle cx="166.5" cy="68.5" r="3.5" transform="rotate(0,166.5,68.5)"/><circle cx="166.5" cy="75.5" r="3.5" transform="rotate(0,166.5,75.5)"/><circle cx="166.5" cy="82.5" r="3.5" transform="rotate(0,166.5,82.5)"/><circle cx="166.5" cy="89.5" r="3.5" transform="rotate(0,166.5,89.5)"/><circle cx="166.5" cy="124.5" r="3.5" transform="rotate(0,166.5,124.5)"/><circle cx="166.5" cy="131.5" r="3.5" transform="rotate(0,166.5,131.5)"/><circle cx="166.5" cy="138.5" r="3.5" transform="rotate(0,166.5,138.5)"/><circle cx="166.5" cy="152.5" r="3.5" transform="rotate(0,166.5,152.5)"/><circle cx="166.5" cy="159.5" r="3.5" transform="rotate(0,166.5,159.5)"/><circle cx="166.5" cy="173.5" r="3.5" transform="rotate(0,166.5,173.5)"/><circle cx="166.5" cy="194.5" r="3.5" transform="rotate(0,166.5,194.5)"/><circle cx="166.5" cy="208.5" r="3.5" transform="rotate(0,166.5,208.5)"/><circle cx="166.5" cy="222.5" r="3.5" transform="rotate(0,166.5,222.5)"/><circle cx="166.5" cy="236.5" r="3.5" transform="rotate(0,166.5,236.5)"/><circle cx="173.5" cy="12.5" r="3.5" transform="rotate(0,173.5,12.5)"/><circle cx="173.5" cy="26.5" r="3.5" transform="rotate(0,173.5,26.5)"/><circle cx="173.5" cy="33.5" r="3.5" transform="rotate(0,173.5,33.5)"/><circle cx="173.5" cy="61.5" r="3.5" transform="rotate(0,173.5,61.5)"/><circle cx="173.5" cy="75.5" r="3.5" transform="rotate(0,173.5,75.5)"/><circle cx="173.5" cy="89.5" r="3.5" transform="rotate(0,173.5,89.5)"/><circle cx="173.5" cy="103.5" r="3.5" transform="rotate(0,173.5,103.5)"/><circle cx="173.5" cy="110.5" r="3.5" transform="rotate(0,173.5,110.5)"/><circle cx="173.5" cy="131.5" r="3.5" transform="rotate(0,173.5,131.5)"/><circle cx="173.5" cy="145.5" r="3.5" transform="rotate(0,173.5,145.5)"/><circle cx="173.5" cy="152.5" r="3.5" transform="rotate(0,173.5,152.5)"/><circle cx="173.5" cy="173.5" r="3.5" transform="rotate(0,173.5,173.5)"/><circle cx="173.5" cy="180.5" r="3.5" transform="rotate(0,173.5,180.5)"/><circle cx="173.5" cy="208.5" r="3.5" transform="rotate(0,173.5,208.5)"/><circle cx="173.5" cy="222.5" r="3.5" transform="rotate(0,173.5,222.5)"/><circle cx="173.5" cy="229.5" r="3.5" transform="rotate(0,173.5,229.5)"/><circle cx="173.5" cy="236.5" r="3.5" transform="rotate(0,173.5,236.5)"/><circle cx="180.5" cy="12.5" r="3.5" transform="rotate(0,180.5,12.5)"/><circle cx="180.5" cy="19.5" r="3.5" transform="rotate(0,180.5,19.5)"/><circle cx="180.5" cy="33.5" r="3.5" transform="rotate(0,180.5,33.5)"/><circle cx="180.5" cy="40.5" r="3.5" transform="rotate(0,180.5,40.5)"/><circle cx="180.5" cy="54.5" r="3.5" transform="rotate(0,180.5,54.5)"/><circle cx="180.5" cy="61.5" r="3.5" transform="rotate(0,180.5,61.5)"/><circle cx="180.5" cy="75.5" r="3.5" transform="rotate(0,180.5,75.5)"/><circle cx="180.5" cy="89.5" r="3.5" transform="rotate(0,180.5,89.5)"/><circle cx="180.5" cy="96.5" r="3.5" transform="rotate(0,180.5,96.5)"/><circle cx="180.5" cy="110.5" r="3.5" transform="rotate(0,180.5,110.5)"/><circle cx="180.5" cy="117.5" r="3.5" transform="rotate(0,180.5,117.5)"/><circle cx="180.5" cy="124.5" r="3.5" transform="rotate(0,180.5,124.5)"/><circle cx="180.5" cy="131.5" r="3.5" transform="rotate(0,180.5,131.5)"/><circle cx="180.5" cy="138.5" r="3.5" transform="rotate(0,180.5,138.5)"/><circle cx="180.5" cy="152.5" r="3.5" transform="rotate(0,180.5,152.5)"/><circle cx="180.5" cy="173.5" r="3.5" transform="rotate(0,180.5,173.5)"/><circle cx="180.5" cy="180.5" r="3.5" transform="rotate(0,180.5,180.5)"/><circle cx="180.5" cy="187.5" r="3.5" transform="rotate(0,180.5,187.5)"/><circle cx="180.5" cy="194.5" r="3.5" transform="rotate(0,180.5,194.5)"/><circle cx="180.5" cy="201.5" r="3.5" transform="rotate(0,180.5,201.5)"/><circle cx="180.5" cy="208.5" r="3.5" transform="rotate(0,180.5,208.5)"/><circle cx="187.5" cy="68.5" r="3.5" transform="rotate(0,187.5,68.5)"/><circle cx="187.5" cy="82.5" r="3.5" transform="rotate(0,187.5,82.5)"/><circle cx="187.5" cy="96.5" r="3.5" transform="rotate(0,187.5,96.5)"/><circle cx="187.5" cy="117.5" r="3.5" transform="rotate(0,187.5,117.5)"/><circle cx="187.5" cy="131.5" r="3.5" transform="rotate(0,187.5,131.5)"/><circle cx="187.5" cy="138.5" r="3.5" transform="rotate(0,187.5,138.5)"/><circle cx="187.5" cy="159.5" r="3.5" transform="rotate(0,187.5,159.5)"/><circle cx="187.5" cy="173.5" r="3.5" transform="rotate(0,187.5,173.5)"/><circle cx="187.5" cy="180.5" r="3.5" transform="rotate(0,187.5,180.5)"/><circle cx="187.5" cy="208.5" r="3.5" transform="rotate(0,187.5,208.5)"/><circle cx="187.5" cy="229.5" r="3.5" transform="rotate(0,187.5,229.5)"/><circle cx="194.5" cy="68.5" r="3.5" transform="rotate(0,194.5,68.5)"/><circle cx="194.5" cy="75.5" r="3.5" transform="rotate(0,194.5,75.5)"/><circle cx="194.5" cy="82.5" r="3.5" transform="rotate(0,194.5,82.5)"/><circle cx="194.5" cy="103.5" r="3.5" transform="rotate(0,194.5,103.5)"/><circle cx="194.5" cy="138.5" r="3.5" transform="rotate(0,194.5,138.5)"/><circle cx="194.5" cy="173.5" r="3.5" transform="rotate(0,194.5,173.5)"/><circle cx="194.5" cy="180.5" r="3.5" transform="rotate(0,194.5,180.5)"/><circle cx="194.5" cy="194.5" r="3.5" transform="rotate(0,194.5,194.5)"/><circle cx="194.5" cy="208.5" r="3.5" transform="rotate(0,194.5,208.5)"/><circle cx="194.5" cy="215.5" r="3.5" transform="rotate(0,194.5,215.5)"/><circle cx="194.5" cy="222.5" r="3.5" transform="rotate(0,194.5,222.5)"/><circle cx="201.5" cy="96.5" r="3.5" transform="rotate(0,201.5,96.5)"/><circle cx="201.5" cy="103.5" r="3.5" transform="rotate(0,201.5,103.5)"/><circle cx="201.5" cy="110.5" r="3.5" transform="rotate(0,201.5,110.5)"/><circle cx="201.5" cy="124.5" r="3.5" transform="rotate(0,201.5,124.5)"/><circle cx="201.5" cy="152.5" r="3.5" transform="rotate(0,201.5,152.5)"/><circle cx="201.5" cy="159.5" r="3.5" transform="rotate(0,201.5,159.5)"/><circle cx="201.5" cy="166.5" r="3.5" transform="rotate(0,201.5,166.5)"/><circle cx="201.5" cy="173.5" r="3.5" transform="rotate(0,201.5,173.5)"/><circle cx="201.5" cy="180.5" r="3.5" transform="rotate(0,201.5,180.5)"/><circle cx="201.5" cy="208.5" r="3.5" transform="rotate(0,201.5,208.5)"/><circle cx="201.5" cy="215.5" r="3.5" transform="rotate(0,201.5,215.5)"/><circle cx="201.5" cy="222.5" r="3.5" transform="rotate(0,201.5,222.5)"/><circle cx="201.5" cy="229.5" r="3.5" transform="rotate(0,201.5,229.5)"/><circle cx="208.5" cy="68.5" r="3.5" transform="rotate(0,208.5,68.5)"/><circle cx="208.5" cy="110.5" r="3.5" transform="rotate(0,208.5,110.5)"/><circle cx="208.5" cy="117.5" r="3.5" transform="rotate(0,208.5,117.5)"/><circle cx="208.5" cy="124.5" r="3.5" transform="rotate(0,208.5,124.5)"/><circle cx="208.5" cy="131.5" r="3.5" transform="rotate(0,208.5,131.5)"/><circle cx="208.5" cy="138.5" r="3.5" transform="rotate(0,208.5,138.5)"/><circle cx="208.5" cy="152.5" r="3.5" transform="rotate(0,208.5,152.5)"/><circle cx="208.5" cy="159.5" r="3.5" transform="rotate(0,208.5,159.5)"/><circle cx="208.5" cy="166.5" r="3.5" transform="rotate(0,208.5,166.5)"/><circle cx="208.5" cy="173.5" r="3.5" transform="rotate(0,208.5,173.5)"/><circle cx="208.5" cy="180.5" r="3.5" transform="rotate(0,208.5,180.5)"/><circle cx="208.5" cy="187.5" r="3.5" transform="rotate(0,208.5,187.5)"/><circle cx="208.5" cy="194.5" r="3.5" transform="rotate(0,208.5,194.5)"/><circle cx="208.5" cy="201.5" r="3.5" transform="rotate(0,208.5,201.5)"/><circle cx="208.5" cy="208.5" r="3.5" transform="rotate(0,208.5,208.5)"/><circle cx="208.5" cy="215.5" r="3.5" transform="rotate(0,208.5,215.5)"/><circle cx="208.5" cy="222.5" r="3.5" transform="rotate(0,208.5,222.5)"/><circle cx="208.5" cy="229.5" r="3.5" transform="rotate(0,208.5,229.5)"/><circle cx="215.5" cy="68.5" r="3.5" transform="rotate(0,215.5,68.5)"/><circle cx="215.5" cy="75.5" r="3.5" transform="rotate(0,215.5,75.5)"/><circle cx="215.5" cy="82.5" r="3.5" transform="rotate(0,215.5,82.5)"/><circle cx="215.5" cy="89.5" r="3.5" transform="rotate(0,215.5,89.5)"/><circle cx="215.5" cy="103.5" r="3.5" transform="rotate(0,215.5,103.5)"/><circle cx="215.5" cy="110.5" r="3.5" transform="rotate(0,215.5,110.5)"/><circle cx="215.5" cy="159.5" r="3.5" transform="rotate(0,215.5,159.5)"/><circle cx="215.5" cy="166.5" r="3.5" transform="rotate(0,215.5,166.5)"/><circle cx="215.5" cy="187.5" r="3.5" transform="rotate(0,215.5,187.5)"/><circle cx="215.5" cy="201.5" r="3.5" transform="rotate(0,215.5,201.5)"/><circle cx="215.5" cy="229.5" r="3.5" transform="rotate(0,215.5,229.5)"/><circle cx="222.5" cy="75.5" r="3.5" transform="rotate(0,222.5,75.5)"/><circle cx="222.5" cy="110.5" r="3.5" transform="rotate(0,222.5,110.5)"/><circle cx="222.5" cy="131.5" r="3.5" transform="rotate(0,222.5,131.5)"/><circle cx="222.5" cy="138.5" r="3.5" transform="rotate(0,222.5,138.5)"/><circle cx="222.5" cy="152.5" r="3.5" transform="rotate(0,222.5,152.5)"/><circle cx="222.5" cy="166.5" r="3.5" transform="rotate(0,222.5,166.5)"/><circle cx="222.5" cy="173.5" r="3.5" transform="rotate(0,222.5,173.5)"/><circle cx="222.5" cy="180.5" r="3.5" transform="rotate(0,222.5,180.5)"/><circle cx="222.5" cy="208.5" r="3.5" transform="rotate(0,222.5,208.5)"/><circle cx="222.5" cy="229.5" r="3.5" transform="rotate(0,222.5,229.5)"/><circle cx="222.5" cy="236.5" r="3.5" transform="rotate(0,222.5,236.5)"/><circle cx="229.5" cy="96.5" r="3.5" transform="rotate(0,229.5,96.5)"/><circle cx="229.5" cy="103.5" r="3.5" transform="rotate(0,229.5,103.5)"/><circle cx="229.5" cy="110.5" r="3.5" transform="rotate(0,229.5,110.5)"/><circle cx="229.5" cy="117.5" r="3.5" transform="rotate(0,229.5,117.5)"/><circle cx="229.5" cy="124.5" r="3.5" transform="rotate(0,229.5,124.5)"/><circle cx="229.5" cy="159.5" r="3.5" transform="rotate(0,229.5,159.5)"/><circle cx="229.5" cy="215.5" r="3.5" transform="rotate(0,229.5,215.5)"/><circle cx="229.5" cy="222.5" r="3.5" transform="rotate(0,229.5,222.5)"/><circle cx="229.5" cy="229.5" r="3.5" transform="rotate(0,229.5,229.5)"/><circle cx="229.5" cy="236.5" r="3.5" transform="rotate(0,229.5,236.5)"/><circle cx="236.5" cy="75.5" r="3.5" transform="rotate(0,236.5,75.5)"/><circle cx="236.5" cy="82.5" r="3.5" transform="rotate(0,236.5,82.5)"/><circle cx="236.5" cy="89.5" r="3.5" transform="rotate(0,236.5,89.5)"/><circle cx="236.5" cy="96.5" r="3.5" transform="rotate(0,236.5,96.5)"/><circle cx="236.5" cy="103.5" r="3.5" transform="rotate(0,236.5,103.5)"/><circle cx="236.5" cy="138.5" r="3.5" transform="rotate(0,236.5,138.5)"/><circle cx="236.5" cy="145.5" r="3.5" transform="rotate(0,236.5,145.5)"/><circle cx="236.5" cy="152.5" r="3.5" transform="rotate(0,236.5,152.5)"/><circle cx="236.5" cy="159.5" r="3.5" transform="rotate(0,236.5,159.5)"/><circle cx="236.5" cy="173.5" r="3.5" transform="rotate(0,236.5,173.5)"/><circle cx="236.5" cy="180.5" r="3.5" transform="rotate(0,236.5,180.5)"/><circle cx="236.5" cy="187.5" r="3.5" transform="rotate(0,236.5,187.5)"/><circle cx="236.5" cy="194.5" r="3.5" transform="rotate(0,236.5,194.5)"/><circle cx="236.5" cy="208.5" r="3.5" transform="rotate(0,236.5,208.5)"/><circle cx="12.5" cy="12.5" r="3.5" transform="rotate(0,12.5,12.5)"/><circle cx="12.5" cy="19.5" r="3.5" transform="rotate(0,12.5,19.5)"/><circle cx="12.5" cy="26.5" r="3.5" transform="rotate(0,12.5,26.5)"/><circle cx="12.5" cy="33.5" r="3.5" transform="rotate(0,12.5,33.5)"/><circle cx="12.5" cy="40.5" r="3.5" transform="rotate(0,12.5,40.5)"/><circle cx="12.5" cy="47.5" r="3.5" transform="rotate(0,12.5,47.5)"/><circle cx="12.5" cy="54.5" r="3.5" transform="rotate(0,12.5,54.5)"/><circle cx="19.5" cy="12.5" r="3.5" transform="rotate(0,19.5,12.5)"/><circle cx="19.5" cy="54.5" r="3.5" transform="rotate(0,19.5,54.5)"/><circle cx="26.5" cy="12.5" r="3.5" transform="rotate(0,26.5,12.5)"/><circle cx="26.5" cy="54.5" r="3.5" transform="rotate(0,26.5,54.5)"/><circle cx="33.5" cy="12.5" r="3.5" transform="rotate(0,33.5,12.5)"/><circle cx="33.5" cy="54.5" r="3.5" transform="rotate(0,33.5,54.5)"/><circle cx="40.5" cy="12.5" r="3.5" transform="rotate(0,40.5,12.5)"/><circle cx="40.5" cy="54.5" r="3.5" transform="rotate(0,40.5,54.5)"/><circle cx="47.5" cy="12.5" r="3.5" transform="rotate(0,47.5,12.5)"/><circle cx="47.5" cy="54.5" r="3.5" transform="rotate(0,47.5,54.5)"/><circle cx="54.5" cy="12.5" r="3.5" transform="rotate(0,54.5,12.5)"/><circle cx="54.5" cy="19.5" r="3.5" transform="rotate(0,54.5,19.5)"/><circle cx="54.5" cy="26.5" r="3.5" transform="rotate(0,54.5,26.5)"/><circle cx="54.5" cy="33.5" r="3.5" transform="rotate(0,54.5,33.5)"/><circle cx="54.5" cy="40.5" r="3.5" transform="rotate(0,54.5,40.5)"/><circle cx="54.5" cy="47.5" r="3.5" transform="rotate(0,54.5,47.5)"/><circle cx="54.5" cy="54.5" r="3.5" transform="rotate(0,54.5,54.5)"/><circle cx="26.5" cy="26.5" r="3.5" transform="rotate(0,26.5,26.5)"/><circle cx="26.5" cy="33.5" r="3.5" transform="rotate(0,26.5,33.5)"/><circle cx="26.5" cy="40.5" r="3.5" transform="rotate(0,26.5,40.5)"/><circle cx="33.5" cy="26.5" r="3.5" transform="rotate(0,33.5,26.5)"/><circle cx="33.5" cy="33.5" r="3.5" transform="rotate(0,33.5,33.5)"/><circle cx="33.5" cy="40.5" r="3.5" transform="rotate(0,33.5,40.5)"/><circle cx="40.5" cy="26.5" r="3.5" transform="rotate(0,40.5,26.5)"/><circle cx="40.5" cy="33.5" r="3.5" transform="rotate(0,40.5,33.5)"/><circle cx="40.5" cy="40.5" r="3.5" transform="rotate(0,40.5,40.5)"/><circle cx="194.5" cy="12.5" r="3.5" transform="rotate(0,194.5,12.5)"/><circle cx="194.5" cy="19.5" r="3.5" transform="rotate(0,194.5,19.5)"/><circle cx="194.5" cy="26.5" r="3.5" transform="rotate(0,194.5,26.5)"/><circle cx="194.5" cy="33.5" r="3.5" transform="rotate(0,194.5,33.5)"/><circle cx="194.5" cy="40.5" r="3.5" transform="rotate(0,194.5,40.5)"/><circle cx="194.5" cy="47.5" r="3.5" transform="rotate(0,194.5,47.5)"/><circle cx="194.5" cy="54.5" r="3.5" transform="rotate(0,194.5,54.5)"/><circle cx="201.5" cy="12.5" r="3.5" transform="rotate(0,201.5,12.5)"/><circle cx="201.5" cy="54.5" r="3.5" transform="rotate(0,201.5,54.5)"/><circle cx="208.5" cy="12.5" r="3.5" transform="rotate(0,208.5,12.5)"/><circle cx="208.5" cy="54.5" r="3.5" transform="rotate(0,208.5,54.5)"/><circle cx="215.5" cy="12.5" r="3.5" transform="rotate(0,215.5,12.5)"/><circle cx="215.5" cy="54.5" r="3.5" transform="rotate(0,215.5,54.5)"/><circle cx="222.5" cy="12.5" r="3.5" transform="rotate(0,222.5,12.5)"/><circle cx="222.5" cy="54.5" r="3.5" transform="rotate(0,222.5,54.5)"/><circle cx="229.5" cy="12.5" r="3.5" transform="rotate(0,229.5,12.5)"/><circle cx="229.5" cy="54.5" r="3.5" transform="rotate(0,229.5,54.5)"/><circle cx="236.5" cy="12.5" r="3.5" transform="rotate(0,236.5,12.5)"/><circle cx="236.5" cy="19.5" r="3.5" transform="rotate(0,236.5,19.5)"/><circle cx="236.5" cy="26.5" r="3.5" transform="rotate(0,236.5,26.5)"/><circle cx="236.5" cy="33.5" r="3.5" transform="rotate(0,236.5,33.5)"/><circle cx="236.5" cy="40.5" r="3.5" transform="rotate(0,236.5,40.5)"/><circle cx="236.5" cy="47.5" r="3.5" transform="rotate(0,236.5,47.5)"/><circle cx="236.5" cy="54.5" r="3.5" transform="rotate(0,236.5,54.5)"/><circle cx="208.5" cy="26.5" r="3.5" transform="rotate(0,208.5,26.5)"/><circle cx="208.5" cy="33.5" r="3.5" transform="rotate(0,208.5,33.5)"/><circle cx="208.5" cy="40.5" r="3.5" transform="rotate(0,208.5,40.5)"/><circle cx="215.5" cy="26.5" r="3.5" transform="rotate(0,215.5,26.5)"/><circle cx="215.5" cy="33.5" r="3.5" transform="rotate(0,215.5,33.5)"/><circle cx="215.5" cy="40.5" r="3.5" transform="rotate(0,215.5,40.5)"/><circle cx="222.5" cy="26.5" r="3.5" transform="rotate(0,222.5,26.5)"/><circle cx="222.5" cy="33.5" r="3.5" transform="rotate(0,222.5,33.5)"/><circle cx="222.5" cy="40.5" r="3.5" transform="rotate(0,222.5,40.5)"/><circle cx="12.5" cy="194.5" r="3.5" transform="rotate(0,12.5,194.5)"/><circle cx="12.5" cy="201.5" r="3.5" transform="rotate(0,12.5,201.5)"/><circle cx="12.5" cy="208.5" r="3.5" transform="rotate(0,12.5,208.5)"/><circle cx="12.5" cy="215.5" r="3.5" transform="rotate(0,12.5,215.5)"/><circle cx="12.5" cy="222.5" r="3.5" transform="rotate(0,12.5,222.5)"/><circle cx="12.5" cy="229.5" r="3.5" transform="rotate(0,12.5,229.5)"/><circle cx="12.5" cy="236.5" r="3.5" transform="rotate(0,12.5,236.5)"/><circle cx="19.5" cy="194.5" r="3.5" transform="rotate(0,19.5,194.5)"/><circle cx="19.5" cy="236.5" r="3.5" transform="rotate(0,19.5,236.5)"/><circle cx="26.5" cy="194.5" r="3.5" transform="rotate(0,26.5,194.5)"/><circle cx="26.5" cy="236.5" r="3.5" transform="rotate(0,26.5,236.5)"/><circle cx="33.5" cy="194.5" r="3.5" transform="rotate(0,33.5,194.5)"/><circle cx="33.5" cy="236.5" r="3.5" transform="rotate(0,33.5,236.5)"/><circle cx="40.5" cy="194.5" r="3.5" transform="rotate(0,40.5,194.5)"/><circle cx="40.5" cy="236.5" r="3.5" transform="rotate(0,40.5,236.5)"/><circle cx="47.5" cy="194.5" r="3.5" transform="rotate(0,47.5,194.5)"/><circle cx="47.5" cy="236.5" r="3.5" transform="rotate(0,47.5,236.5)"/><circle cx="54.5" cy="194.5" r="3.5" transform="rotate(0,54.5,194.5)"/><circle cx="54.5" cy="201.5" r="3.5" transform="rotate(0,54.5,201.5)"/><circle cx="54.5" cy="208.5" r="3.5" transform="rotate(0,54.5,208.5)"/><circle cx="54.5" cy="215.5" r="3.5" transform="rotate(0,54.5,215.5)"/><circle cx="54.5" cy="222.5" r="3.5" transform="rotate(0,54.5,222.5)"/><circle cx="54.5" cy="229.5" r="3.5" transform="rotate(0,54.5,229.5)"/><circle cx="54.5" cy="236.5" r="3.5" transform="rotate(0,54.5,236.5)"/><circle cx="26.5" cy="208.5" r="3.5" transform="rotate(0,26.5,208.5)"/><circle cx="26.5" cy="215.5" r="3.5" transform="rotate(0,26.5,215.5)"/><circle cx="26.5" cy="222.5" r="3.5" transform="rotate(0,26.5,222.5)"/><circle cx="33.5" cy="208.5" r="3.5" transform="rotate(0,33.5,208.5)"/><circle cx="33.5" cy="215.5" r="3.5" transform="rotate(0,33.5,215.5)"/><circle cx="33.5" cy="222.5" r="3.5" transform="rotate(0,33.5,222.5)"/><circle cx="40.5" cy="208.5" r="3.5" transform="rotate(0,40.5,208.5)"/><circle cx="40.5" cy="215.5" r="3.5" transform="rotate(0,40.5,215.5)"/><circle cx="40.5" cy="222.5" r="3.5" transform="rotate(0,40.5,222.5)"/></clipPath></defs><rect x="0" y="0" height="250" width="250" clip-path="url('#clip-path-background-color')" fill="#000000"/><rect x="0" y="0" height="250" width="250" clip-path="url('#clip-path-dot-color')" fill="#00f900"/></svg>